<?xml version="1.0" encoding="UTF-8" standalone="no"?>
<!-- Created with Inkscape (http://www.inkscape.org/) -->

<svg
   version="1.1"
   id="svg3923"
   width="505.51593"
   height="580.02246"
   viewBox="0 0 505.51593 580.02246"
   sodipodi:docname="Horse13d.svg"
   inkscape:version="1.2.2 (732a01da63, 2022-12-09, custom)"
   xmlns:inkscape="http://www.inkscape.org/namespaces/inkscape"
   xmlns:sodipodi="http://sodipodi.sourceforge.net/DTD/sodipodi-0.dtd"
   xmlns="http://www.w3.org/2000/svg"
   xmlns:svg="http://www.w3.org/2000/svg">
  <defs
     id="defs3927" />
  <sodipodi:namedview
     id="namedview3925"
     pagecolor="#ffffff"
     bordercolor="#000000"
     borderopacity="0.25"
     inkscape:showpageshadow="2"
     inkscape:pageopacity="0.0"
     inkscape:pagecheckerboard="0"
     inkscape:deskcolor="#d1d1d1"
     showgrid="false"
     inkscape:zoom="1.0094236"
     inkscape:cx="250.63809"
     inkscape:cy="249.64742"
     inkscape:window-width="1920"
     inkscape:window-height="1031"
     inkscape:window-x="0"
     inkscape:window-y="25"
     inkscape:window-maximized="1"
     inkscape:current-layer="layer1" />
  <g
     inkscape:groupmode="layer"
     id="layer1"
     inkscape:label="Layer 1"
     transform="translate(1.4688619e-7,84.604895)">
    <g
       id="layer3-7"
       inkscape:label="03"
       transform="matrix(0.694906,0,0,0.694906,6.9531695,-44.892715)">
      <path
         style="fill:#FF0000;stroke-width:0.405129"
         d="m 340.18242,414.93134 c -0.27856,-0.77032 -1.51391,-2.52969 -2.74523,-3.90964 -3.16094,-3.54253 -4.91746,-6.33198 -6.06487,-9.63137 -1.54283,-4.43642 -1.63029,-7.71688 -0.41583,-15.59675 1.3437,-8.7183 1.36609,-12.35144 0.093,-15.08537 -1.24361,-2.67057 -4.28296,-5.3558 -8.23229,-7.27302 -5.35192,-2.5982 -10.17166,-6.91162 -12.64868,-11.31994 -1.37125,-2.44041 -2.94458,-7.13753 -4.08268,-12.18873 -0.45185,-2.00539 -0.9203,-4.07432 -1.04102,-4.59758 -0.2181,-0.94545 -0.20569,-0.94353 1.97449,0.30385 2.67438,1.53012 4.12779,1.57342 6.83122,0.20349 2.25943,-1.14496 7.86912,-6.54476 10.92546,-10.51669 14.67789,-19.07501 34.55927,-62.85464 44.69688,-98.42442 3.41656,-11.98763 4.69248,-18.0291 6.50269,-30.7899 4.39068,-30.95149 13.01546,-56.31006 25.62156,-75.33251 7.69829,-11.61663 18.11714,-21.754572 28.6515,-27.878992 1.55975,-0.90681 6.57324,-3.96491 11.14108,-6.79579 21.45932,-13.29923 40.28776,-23.28091 87.30558,-46.284041 35.01914,-17.132864 49.57885,-25.001754 64.61845,-34.9234578 17.42272,-11.49386 27.56006,-21.8272202 34.38554,-35.0504852 3.61153,-6.996696 6.49857,-16.006014 6.52367,-20.357797 0.008,-1.407024 0.0962,-1.519239 1.19285,-1.519239 0.93172,0 1.58231,0.466165 3.05279,2.187363 5.9304,6.941601 9.14542,16.132851 8.60469,24.599401 l -0.22302,3.491771 2.32641,2.392257 c 6.43832,6.620572 7.773,17.5775792 3.71703,30.51461 l -1.18167,3.769036 0.76108,2.478094 c 1.1452,3.72899 2.29785,9.296525 2.84802,13.756985 0.62715,5.084157 0.28744,14.519024 -0.65144,18.093053 -0.76664,2.91838 -2.55369,7.11768 -3.75344,8.82002 -0.76949,1.09184 -0.76916,1.15131 0.0249,4.75185 0.62705,2.84351 0.81112,5.2515 0.83622,10.93852 0.0347,7.86242 -0.36447,10.55561 -2.34382,15.81431 l -1.03761,2.75663 0.8546,2.46331 c 1.78647,5.1493 1.37941,12.901232 -1.06571,20.295332 -2.09458,6.33409 -7.24629,15.82344 -11.57524,21.32135 -1.13979,1.4476 -1.16236,1.57512 -1.16236,6.569 0,15.75894 -7.89698,32.5662 -21.57101,45.90983 l -4.64133,4.52918 -0.23208,5.80164 c -0.89608,22.39567 -10.95888,38.84843 -30.67908,50.16031 -1.67116,0.95861 -3.08955,1.78235 -3.15197,1.83053 -0.0624,0.0482 -0.57037,1.97446 -1.12878,4.28063 -2.94805,12.17509 -10.81549,23.94238 -20.7905,31.09623 -1.52247,1.09191 -1.91754,1.69347 -2.76506,4.21027 -2.40736,7.14887 -7.10353,14.35112 -13.28069,20.36779 l -3.74343,3.64618 -0.46111,3.685 c -0.78526,6.27552 -3.17164,12.19183 -6.95584,17.24488 -2.439,3.25682 -7.57416,8.19362 -10.80506,10.38767 -2.42527,1.64698 -2.46024,1.6983 -3.10616,4.55851 -0.3593,1.59103 -1.3658,4.74373 -2.23667,7.00594 -0.87087,2.2622 -1.87448,4.93351 -2.23026,5.93621 -1.33711,3.76844 -5.63254,7.59804 -12.36924,11.02794 -2.1162,1.07744 -4.21856,2.29921 -4.67192,2.71509 -0.45335,0.41588 -1.64467,0.88553 -2.64736,1.04369 -1.0027,0.15818 -4.1931,1.00081 -7.08979,1.87252 -15.98427,4.81027 -34.17173,8.28049 -75.15167,14.33915 -40.90764,6.04794 -55.0562,9.16687 -60.49574,13.33591 l -1.69176,1.29661 v 3.4167 3.41677 l -1.43091,0.12048 c -1.30577,0.1099 -1.47521,0 -1.93739,-1.28017 z"
         id="path2002" />
      <path
         id="path2033"
         style="display:inline;fill:#ff0000;stroke-width:0.405129"
         d="m 637.02991,-46.769464 c -0.13166,-4.56e-4 -0.47183,1.046902 -0.75586,2.328125 -3.92614,17.709937 -16.14431,34.105935 -35.85742,48.1152345 -16.79765,11.9373985 -32.32703,20.2733385 -92.38281,49.5957035 -25.35892,12.381537 -47.01325,24.16126 -65.22657,35.480468 -4.01078,2.492618 -9.0285,5.544382 -11.15039,6.78125 -5.74777,3.350417 -10.16974,6.822193 -15.5957,12.248043 -19.09558,19.09522 -31.52158,49.0448 -37.30078,89.90235 -2.11345,14.94159 -4.96532,26.54897 -10.85938,44.20312 -17.83127,53.40908 -43.64219,97.83985 -56.83984,97.83985 -1.37025,0 -1.74414,0.14675 -1.74414,0.6875 0,1.0632 2.01613,7.42531 2.92773,9.23828 2.2701,4.51471 6.74491,8.5922 12.66992,11.54883 4.56306,2.27699 7.83706,5.38506 9.02735,8.5664 1.60055,4.27787 1.55084,6.22367 -0.51953,19.76172 -0.51713,3.38149 -0.56048,4.79881 -0.21094,7.08984 0.54164,3.55012 2.50723,7.77652 5.07031,10.90821 l 1.94141,2.375 0.50586,-1.20313 c 0.27825,-0.66175 1.02745,-1.69865 1.66406,-2.30273 1.46447,-1.3897 5.64252,-3.51218 9.05664,-4.60156 9.8694,-3.14926 21.16841,-5.24846 57.125,-10.61329 33.39395,-4.98245 47.14157,-7.44592 61.17383,-10.96484 14.42969,-3.61859 24.64066,-7.63015 30.25195,-11.88086 2.5519,-1.93314 4.85712,-4.89104 5.23828,-6.72461 0.11673,-0.5616 0.85044,-2.54315 1.63086,-4.40234 1.38047,-3.28872 2.98633,-8.78667 2.98633,-10.22266 0,-0.43168 1.30584,-1.62495 3.31836,-3.03515 6.23854,-4.37146 11.38189,-10.2349 14.12891,-16.10547 1.60538,-3.43084 2.81054,-8.3833 2.81054,-11.55274 v -2.64258 l 4.35352,-4.12304 c 2.39533,-2.26807 5.44795,-5.64372 6.7832,-7.50196 2.90996,-4.04967 5.9096,-9.8918 6.88672,-13.41406 0.67746,-2.44206 0.84501,-2.66267 3.51367,-4.59179 5.91476,-4.27565 12.08278,-11.58517 15.49805,-18.36719 1.84186,-3.65754 4.24523,-10.73348 4.56641,-13.44531 0.13121,-1.10791 0.44194,-2.27301 0.68945,-2.58985 0.24751,-0.31685 2.27179,-1.61557 4.5,-2.88476 6.07948,-3.46289 9.93741,-6.38806 14.09766,-10.68946 8.75576,-9.05282 13.41761,-19.60897 14.9121,-33.76562 0.24061,-2.27928 0.33953,-5.51244 0.21875,-7.1836 l -0.21875,-3.03711 2.4668,-2.02734 c 3.45077,-2.83164 8.78921,-8.6634 11.87305,-12.9707 5.16863,-7.21918 8.70899,-14.56275 10.83398,-22.47656 1.12485,-4.18914 1.25891,-5.32089 1.33399,-11.20704 l 0.084,-6.54492 1.82031,-2.36719 c 6.80336,-8.8494 11.87643,-20.10508 12.85938,-28.52929 0.53228,-4.56214 0.0809,-8.351731 -1.37305,-11.541018 l -0.93554,-2.052734 0.94335,-1.857422 c 2.2101,-4.348736 3.68639,-13.183326 3.20118,-19.15625 -0.31682,-3.900226 -1.29886,-9.953745 -1.84961,-11.402344 -0.33834,-0.889879 -0.18085,-1.375968 1.04101,-3.216796 3.34995,-5.046895 4.88248,-11.920769 4.51953,-20.273438 -0.24353,-5.604787 -1.56192,-13.155126 -3.21875,-18.421875 l -0.94336,-2.998047 1.09961,-3.443359 c 3.16093,-9.8886662 3.27621,-18.9461198 0.31446,-24.826172 -1.26221,-2.505903 -3.30268,-4.867741 -4.99219,-5.775391 l -1.48438,-0.796875 0.32422,-2.632812 c 0.77818,-6.316211 -0.21034,-12.821608 -2.71875,-17.882813 -1.37531,-2.77488 -3.69481,-6.422555 -4.08398,-6.423828 z m 3.85156,25.501953 c 0.26566,0.02491 0.55617,0.184989 0.88867,0.460938 1.85973,1.543432 -3.03108,13.3113002 -8.68164,20.88867162 C 624.79064,11.209489 610.98452,21.95573 589.05921,34.355536 c -14.13927,7.996432 -24.02825,12.971938 -60.36329,30.371094 -15.74815,7.541062 -32.12311,15.547361 -32.51953,15.900391 -0.0594,0.0529 -0.57744,1.719946 -1.15234,3.703125 -1.28318,4.426475 -3.28377,9.572296 -5.85156,15.050781 -1.0705,2.283923 -1.82007,4.152343 -1.66602,4.152343 0.55904,0 17.10229,-6.06594 25.99024,-9.529296 25.89836,-10.09177 52.85279,-22.188638 72.11914,-32.367188 33.02823,-17.449075 52.12422,-32.019971 57.94336,-44.21289 1.34512,-2.818444 2.05029,-3.425149 3.0332,-2.609375 0.9522,0.790234 0.71179,2.003736 -1.0332,5.205078 -2.22572,4.083193 -4.53105,6.980613 -9.18946,11.548828 -15.84318,15.536405 -49.40112,34.647872 -95.92578,54.632812 -15.50524,6.660364 -42.14503,16.997461 -52.91211,20.531251 -3.42281,1.12338 -3.70309,1.67801 -3.35937,6.65625 0.22691,3.28665 -0.27895,11.99691 -0.90235,15.52148 l -0.22656,1.27344 4.5957,-0.97656 c 53.68136,-11.4186 111.62486,-35.190583 142.94532,-58.642579 2.11681,-1.585009 5.98213,-4.947962 8.58789,-7.47461 4.94742,-4.797215 6.07866,-5.372188 6.32812,-3.21289 0.29209,2.528217 -12.82769,13.625609 -25.36133,21.451171 -33.62075,20.991618 -81.30607,39.514008 -129.03125,50.119138 l -8.55664,1.90039 -0.33789,1.39844 c -1.08305,4.46738 -2.59711,9.24423 -4.20703,13.27734 -1.82791,4.5792 -1.82809,4.58739 -1.39648,7.36915 0.23767,1.53182 0.43164,3.70685 0.43164,4.83398 0,1.12713 0.12505,2.05078 0.27734,2.05078 0.92204,0 17.29517,-3.23507 25.85352,-5.10742 29.62383,-6.48093 54.90019,-14.23073 77.80468,-23.85742 27.83938,-11.70081 51.15839,-26.90777 58.73243,-38.300784 1.42267,-2.140008 2.10275,-2.822265 2.81445,-2.822265 1.32256,0 1.5542,1.008079 0.64062,2.798828 -3.51906,6.897931 -13.99514,15.902351 -29.14062,25.050781 -6.73134,4.06597 -19.98991,10.87688 -27.80078,14.28125 -28.11902,12.25563 -62.57076,22.33272 -100.96094,29.53125 l -8.01953,1.50391 -0.29297,3.01953 c -1.03577,10.61588 -5.234,20.64652 -12.4082,29.65429 l -2.5,3.14063 3.34765,-0.002 c 17.85427,-0.009 46.47114,-5.14595 75.79883,-13.60743 18.90581,-5.4546 30.36325,-9.74435 43.41602,-16.2539 17.25468,-8.60509 29.60016,-17.74693 41.35547,-30.6211 3.32962,-3.64652 4.26706,-4.08289 4.8457,-2.25976 0.5108,1.60944 -8.83376,11.38991 -17.64063,18.46484 -11.08823,8.90764 -25.8152,17.23999 -41.99804,23.76172 -19.67056,7.92729 -52.73458,16.86379 -76.50196,20.67578 -10.97893,1.76089 -16.65156,2.31142 -26.32812,2.5586 l -9.31445,0.23828 -3.04297,2.75976 c -8.09072,7.33944 -22.0836,17.09809 -35.41797,24.69727 -2.80459,1.59828 -5.09961,2.99823 -5.09961,3.11133 0,0.11309 0.52377,1.13806 1.16406,2.27929 0.64029,1.14123 1.76929,3.57969 2.50977,5.41797 1.27492,3.16508 1.4126,3.34155 2.58398,3.33789 2.83221,-0.009 17.6049,-0.84556 25.13867,-1.42383 60.83847,-4.6698 117.89744,-22.94863 151.44336,-48.51562 3.87304,-2.95184 4.95445,-3.59428 5.48828,-3.25977 1.60168,1.00362 1.03234,2.00479 -2.85546,5.01563 -31.70834,24.55588 -85.1423,42.76305 -143.13672,48.77344 -7.95875,0.82482 -20.95862,1.74217 -29.60352,2.08789 l -6.91406,0.27539 0.56641,2.88086 c 0.35925,1.82645 0.49537,4.30337 0.37304,6.76758 -0.18304,3.68733 -0.5081,4.90114 -2.57031,9.58398 -0.12404,0.28167 0.0516,0.50586 0.39648,0.50586 1.75057,0 4.25468,3.40816 5.16797,7.03516 l 0.47266,1.8789 1.875,-0.004 c 6.58158,-0.009 28.79165,-1.53701 41.58008,-2.86133 39.83792,-4.12543 76.75367,-13.03094 97.55468,-23.53125 2.63826,-1.33178 3.92969,-1.25183 3.92969,0.24218 0,1.24313 -0.22723,1.39849 -5.87304,3.97266 -24.45773,11.15117 -61.23742,19.29281 -104.72657,23.18555 -9.2084,0.82425 -25.76838,1.82569 -30.22851,1.82812 l -3.69141,0.004 -0.22461,5.77344 c -0.24779,6.35837 -1.11752,10.27728 -3.08984,13.92773 l -1.12305,2.07813 1.37695,1.09765 c 0.75697,0.60399 1.67279,1.72057 2.03516,2.48047 l 0.6582,1.38086 h 3.67383 c 12.9805,-0.003 40.68977,-2.04492 58.16211,-4.28711 26.12383,-3.35238 43.80245,-7.89269 54.33984,-13.95703 3.87229,-2.22854 4.5783,-2.39035 5.2168,-1.19727 0.6239,1.16574 -0.77518,2.32989 -6.04101,5.02344 -14.66241,7.50002 -42.35723,12.94519 -80.45704,15.82031 -11.62047,0.8769 -22.71044,1.43257 -28.60742,1.4336 h -5.10742 l 0.19727,3.79492 c 0.14087,2.69312 0.003,4.67747 -0.47461,6.82812 -0.67573,3.0373 -2.75947,7.88563 -4.34571,10.11329 -0.46533,0.65352 -0.72017,1.31301 -0.5664,1.46679 0.50369,0.50369 29.72635,0.59019 37.67773,0.11133 29.7921,-1.79419 50.51972,-7.05125 64.58594,-16.38086 2.78972,-1.85034 3.5373,-2.1796 4.17578,-1.83789 2.01136,1.07644 -0.79184,3.70278 -8.38672,7.85938 -17.92113,9.80808 -51.50044,14.90444 -89.50781,13.58398 l -11.19531,-0.38867 -2.79297,2.15625 -2.79297,2.1582 1.60937,1.57227 c 1.79145,1.74931 3.34995,4.72556 4.00586,7.65234 0.58265,2.59993 0.56951,8.10624 -0.0254,10.46875 -0.26587,1.05584 -0.40155,2.00078 -0.30078,2.10156 0.10077,0.10076 2.63143,0.48845 5.62305,0.85938 6.61029,0.81966 23.45335,0.93747 30.35351,0.21289 17.53441,-1.84129 32.90203,-5.96926 45.70313,-12.27734 3.63396,-1.79072 6.87304,-3.15445 7.19922,-3.0293 0.86532,0.33208 1.14826,1.38013 0.5625,2.08594 -0.77113,0.92913 -6.62945,4.01576 -11.47266,6.04492 -12.91031,5.4089 -28.9741,9.09686 -45.23242,10.38672 -7.09952,0.56325 -22.12287,0.23011 -28.76367,-0.63868 -2.56245,-0.33522 -4.86678,-0.61128 -5.11914,-0.61328 -0.25235,0 -1.25536,1.21909 -2.22852,2.71289 -5.97705,9.17489 -16.45846,15.27183 -30.5332,17.75977 -3.96251,0.70043 -16.93126,1.12032 -20.25586,0.65625 -2.44708,-0.34159 -3.03906,-0.67598 -3.03906,-1.71875 0,-0.92215 0.85905,-1.31501 4.2539,-1.94336 4.74812,-0.87885 9.73901,-4.07678 11.77149,-7.54492 2.92685,-4.99432 1.55366,-12.43497 -3.31641,-17.9707 -1.75369,-1.99343 -1.86398,-2.24253 -1.35547,-3.03907 3.73942,-5.85748 4.95062,-9.2949 4.95508,-14.05078 0.004,-3.71945 -0.82112,-6.70554 -2.7207,-9.85547 -0.78893,-1.30822 -1.4336,-2.59266 -1.4336,-2.85351 0,-0.26082 0.83499,-1.28785 1.85547,-2.28125 3.52201,-3.42849 5.09571,-7.29346 5.09571,-12.51563 0,-6.77188 -3.40917,-11.9892 -10.40039,-15.91406 -2.70023,-1.51589 -3.31817,-2.75465 -1.78321,-3.57617 1.40967,-0.75442 4.45051,-3.69317 5.42969,-5.24805 2.51306,-3.99054 3.12941,-9.84518 1.44141,-13.68945 -1.19434,-2.71995 -3.77739,-5.01627 -7.03711,-6.25781 -2.04352,-0.77831 -2.5223,-1.13444 -2.61328,-1.94727 -0.0929,-0.8298 0.44501,-1.39933 3.23242,-3.42578 4.11946,-2.99485 12.02766,-10.77323 14.82812,-14.58399 10.24367,-13.93928 16.5646,-32.22534 22.75781,-65.83593 3.85222,-20.906 6.67153,-30.38551 12.47071,-41.92969 6.46926,-12.87811 14.56741,-22.0652 28.45703,-32.2832 3.3902,-2.49403 17.02851,-11.628183 22.16992,-14.84766 10.33668,-6.472664 29.52456,-16.321687 62.50195,-32.082031 39.85356,-19.046563 59.47154,-29.481683 74.05469,-39.392578 18.20152,-12.3700269 28.71418,-24.5599005 32.47656,-37.658204 0.83712,-2.914317 1.41396,-4.061066 2.21094,-3.986328 z" />
      <path
         style="fill:#ffff00;stroke-width:0.405129"
         d="m 424.11024,155.92428 c 8.79483,-3.70352 18.70372,-9.15861 26.55433,-14.6188 16.5366,-11.50141 30.55969,-29.46168 38.53335,-49.352162 1.23905,-3.09083 3.28801,-9.1793 3.13136,-9.30482 -0.1908,-0.15289 -13.59801,7.23962 -18.9343,10.44003 -7.6382,4.58099 -22.3719,14.549462 -28.09588,19.008982 -14.22119,11.07969 -23.05753,23.58938 -29.02137,41.08584 -1.11748,3.2784 -2.03177,6.11711 -2.03177,6.30826 0,0.39331 3.24957,-0.78186 9.86428,-3.56733 z"
         id="path2049" />
      <path
         style="fill:#ffff00;stroke-width:0.405129"
         d="m 417.57687,197.29688 c 23.86103,-9.29061 41.48533,-22.43851 51.55906,-38.4636 7.52943,-11.97766 11.95653,-27.03537 11.95653,-40.66722 v -4.22675 l -2.09124,3.00073 c -10.77836,15.46591 -24.02244,26.7506 -42.98197,36.62301 -6.04662,3.14853 -15.17792,7.14353 -19.87478,8.69533 -2.11527,0.69887 -2.84898,1.14482 -3.13913,1.90796 -0.20826,0.54775 -1.0065,4.22077 -1.77388,8.16225 -3.93529,20.21289 -5.48017,27.93024 -5.7122,28.53488 -0.21985,0.57293 0.21971,0.52116 3.1213,-0.36762 1.85745,-0.56895 5.87879,-2.00849 8.93631,-3.19897 z"
         id="path2047" />
      <path
         style="fill:#ffff00;stroke-width:0.405129"
         d="m 399.57708,239.47652 c 28.32047,-14.26455 51.61049,-30.16366 61.57892,-42.03732 8.4902,-10.11289 12.39682,-20.021 12.91982,-32.76774 0.30934,-7.5393 0.008,-8.25349 -2.03526,-4.82348 -3.89453,6.53776 -11.42821,14.91085 -18.69952,20.78304 -11.16494,9.0166 -27.95652,17.69451 -44.0205,22.74986 l -4.72286,1.48628 -0.87886,3.31653 c -3.68554,13.90819 -8.35608,25.84945 -13.37951,34.20772 -0.70307,1.16981 -1.16442,2.12693 -1.02521,2.12693 0.1392,0 4.75755,-2.26882 10.26298,-5.04182 z"
         id="path2045" />
      <path
         style="fill:#ffff00;stroke-width:0.405129"
         d="m 387.70211,280.92158 c 12.4404,-2.57353 21.90154,-6.7237 26.82192,-11.7655 5.30376,-5.43466 6.22909,-12.46934 2.96487,-22.54005 -1.0846,-3.34616 -3.5671,-8.87056 -4.51857,-10.05535 -0.26555,-0.33065 -1.66882,0.23774 -4.91598,1.99122 -5.3207,2.87321 -21.54694,10.828 -22.08703,10.828 -0.204,0 -1.69075,1.51603 -3.30389,3.36894 -2.52822,2.90403 -4.64932,4.90222 -11.0764,10.43453 l -1.21036,1.04183 1.80272,1.05648 c 2.3558,1.3806 5.02008,4.30206 6.10697,6.6965 0.70097,1.54425 0.87255,2.71941 0.89189,6.10856 l 0.0239,4.19647 2.2204,-0.26098 c 1.22122,-0.14353 4.04701,-0.63881 6.27952,-1.10065 z"
         id="path2043" />
      <path
         style="fill:#ffff00;stroke-width:0.405129"
         d="m 390.14071,315.77956 c 11.24646,-1.37123 21.09649,-6.12651 26.89624,-12.98466 4.66904,-5.52112 5.82957,-9.18628 5.88113,-18.57378 0.0268,-4.88043 -0.12145,-6.78431 -0.6654,-8.5452 -1.59259,-5.15548 -3.39627,-5.65628 -7.9491,-2.20703 -6.9519,5.26677 -19.80369,9.79535 -32.90099,11.59331 l -3.47142,0.47652 -0.957,1.80398 c -0.52635,0.99218 -1.80179,2.70379 -2.83432,3.80356 l -1.87731,1.9996 1.9394,1.2445 c 2.75334,1.76681 6.14769,5.5876 7.60356,8.55878 1.59981,3.26493 2.211,6.62786 1.87925,10.34006 l -0.26248,2.9372 h 1.53613 c 0.84487,0 3.17691,-0.20118 5.18231,-0.44571 z"
         id="path2041" />
      <path
         style="fill:#ffff00;stroke-width:0.405129"
         d="m 392.10088,342.76255 c 6.60902,-0.86639 11.9689,-2.3702 16.87218,-4.73377 3.64051,-1.7549 4.73799,-2.53217 7.54615,-5.34459 2.62213,-2.62609 3.62706,-3.99733 4.9737,-6.78665 1.81015,-3.74945 2.86294,-7.81706 2.87428,-11.10527 0.0151,-4.39039 -2.26821,-9.90951 -4.09968,-9.90951 -0.48737,0 -1.99646,1.06855 -3.51423,2.48836 -7.51602,7.03086 -17.53073,10.94041 -29.82084,11.64144 l -4.42366,0.25232 -0.99246,1.82309 c -0.54585,1.00269 -1.69493,2.67012 -2.55351,3.70542 l -1.56105,1.88234 1.21882,2.43907 c 1.666,3.33394 2.53419,7.65842 2.27227,11.31815 l -0.21022,2.93717 h 3.39161 c 1.8654,0 5.47738,-0.2734 8.02664,-0.60757 z"
         id="path2039" />
      <path
         style="fill:#ffff00;stroke-width:0.405129"
         d="m 382.6458,381.80449 c 14.82228,-1.98057 26.02777,-8.73049 31.76351,-19.13363 3.45042,-6.25817 2.85546,-15.36725 -1.29339,-19.80209 -1.50582,-1.60963 -3.03913,-1.73229 -6.36487,-0.50915 -6.5365,2.40398 -14.84738,3.84643 -22.16166,3.84643 h -4.63707 l -1.85449,3.72785 -1.8545,3.72788 1.3628,1.66311 c 0.74953,0.9147 1.91563,2.8445 2.59133,4.28842 3.38984,7.24394 2.37778,14.21645 -2.77719,19.1335 -1.26111,1.20287 -2.88014,2.49073 -3.59783,2.86182 -0.71769,0.37115 -1.3049,0.7708 -1.3049,0.88809 0,0.26544 6.06162,-0.14889 10.12826,-0.69223 z"
         id="path2037" />
    </g>
    <g
       id="layer3"
       inkscape:label="01"
       transform="translate(-28.598139,-25.391588)">
      <path
         style="display:inline;fill:#ffcc00;stroke-width:1.33333"
         d="m 268.33333,520.02907 c -3.84096,-1.63432 -3.77772,-3.91631 0.33334,-12.02909 C 270.5,504.38207 272,500.52202 272,499.42209 c 0,-3.14175 10.75889,-13.05991 16.1708,-14.90716 2.26885,-0.77443 5.16253,-5.9388 5.16253,-9.21362 0,-1.04858 1.59572,-2.95208 3.54606,-4.22998 6.05713,-3.96879 30.00749,-31.42846 32.76976,-37.57134 2.91141,-6.47453 2.12902,-9.53458 -4.0216,-15.72941 -3.77775,-3.8049 -12.62448,-9.88478 -13.34082,-9.16844 -0.29234,0.29235 0.18682,2.52646 1.0648,4.96468 1.30811,3.63275 1.20327,5.7572 -0.58069,11.76649 -1.7672,5.95282 -3.11935,7.9139 -7.18264,10.41731 -6.06588,3.7372 -17.65405,17.32296 -19.84628,23.26743 -0.87527,2.3734 -1.62527,6.17228 -1.66667,8.44194 -0.0977,5.36076 -3.9825,8.94872 -8.46958,7.82254 -5.46086,-1.37059 -9.46255,3.57476 -8.37847,10.35422 0.99455,6.21955 -1.35108,8.91758 -7.8136,8.9875 -2.15587,0.0233 -7.27071,0.73453 -11.36633,1.58046 -7.25816,1.49915 -14.86739,0.92682 -18.52704,-1.39354 -1.46412,-0.92831 -1.04311,-2.78524 2.18716,-9.64706 2.20016,-4.6736 4.40604,-9.84606 4.90198,-11.49437 0.54576,-1.81391 2.31399,-3.29343 4.4795,-3.74812 7.03562,-1.47724 12.41714,-4.67541 14.64613,-8.70403 5.03632,-9.10249 10.60625,-17.15497 16.93205,-24.47876 3.66646,-4.24488 8.12647,-9.76785 9.91115,-12.27326 l 3.24487,-4.55531 -3.04844,-8.28846 c -1.67663,-4.55867 -4.15904,-11.3349 -5.51647,-15.05828 -1.35743,-3.72339 -5.56525,-12.0321 -9.35075,-18.46379 -4.32582,-7.34977 -8.19384,-16.26377 -10.41208,-23.99515 -2.18034,-7.59927 -4.92438,-13.95902 -7.17902,-16.6385 -2.0073,-2.38555 -3.64964,-5.17336 -3.64964,-6.19515 0,-3.38736 -7.43312,-7.42882 -23.47604,-12.76416 -8.72151,-2.90048 -19.7573,-6.85565 -24.52396,-8.78926 -9.225,-3.74215 -27.47708,-15.16652 -33.8347,-21.17787 -2.10908,-1.99421 -6.00908,-4.11368 -8.66666,-4.70995 -2.65759,-0.59625 -8.13198,-1.77762 -12.16531,-2.62526 -13.71552,-2.88244 -28.64005,-7.58994 -39.8094,-12.55667 -11.078901,-4.9265 -11.157756,-4.93988 -13.764347,-2.33328 -3.978188,3.97819 -2.061949,11.40752 4.889147,18.9554 7.36183,7.99387 8.13583,10.38977 4.579412,14.17541 -4.312843,4.5908 -2.731511,6.5547 5.277868,6.5547 h 6.92846 l 3.36701,8 c 4.66866,11.09273 5.90514,28.05485 2.35931,32.36525 l -2.49413,3.03192 -8,-2.81155 c -4.4,-1.54634 -9.955338,-3.73161 -12.345199,-4.85614 -4.813456,-2.26492 -12.856231,-13.07939 -11.791236,-15.85472 0.373674,-0.97379 -1.39276,-4.25074 -3.92541,-7.28212 -3.987962,-4.77328 -4.604818,-6.46546 -4.604818,-12.63199 0,-3.91621 -0.632238,-8.78329 -1.404972,-10.81575 -2.808548,-7.38704 -7.928362,-28.31711 -7.928362,-32.41158 0,-4.60223 3.313243,-12.06665 5.356036,-12.06665 0.708156,0 3.873192,-1.97367 7.033414,-4.38591 5.579232,-4.25873 6.014557,-4.36135 15.011537,-3.53849 8.11232,0.74194 32.09272,-0.4582 33.30113,-1.66662 0.24247,-0.24246 -2.84099,-4.33368 -6.85213,-9.09158 -4.01114,-4.75791 -10.2279,-13.15074 -13.81502,-18.65074 -10.1862,-15.61813 -12.93832,-18.4599 -19.830547,-20.4765 -8.715057,-2.54995 -11.175642,-1.02583 -16.090918,9.96697 -2.251987,5.03647 -5.32022,10.38292 -6.818296,11.881 -2.449288,2.44928 -2.930126,2.51743 -4.771396,0.67615 -1.126191,-1.12619 -2.909847,-2.04762 -3.963679,-2.04762 -1.582292,0 -1.625963,0.46452 -0.2507,2.66667 1.108764,1.77541 3.109369,2.66667 5.985896,2.66667 5.116071,0 5.965443,2.15768 5.248664,13.33333 -0.432469,6.74284 -3.125067,13.30357 -11.120915,27.09699 -2.539914,4.38153 -4.673784,3.69344 -13.766158,-4.43904 l -8.594279,-7.68698 -0.12492,-13.15216 c -0.07311,-7.69637 -0.811416,-14.42369 -1.77984,-16.21744 -3.189013,-5.9068 2.474751,-15.39622 12.021228,-20.1411 9.635015,-4.78891 19.520503,-14.35823 32.102945,-31.0762 2.991088,-3.97419 9.520703,-4.10172 16.624296,-0.32471 3.519666,1.87143 7.905602,4.72366 9.746524,6.33828 4.255965,3.73282 8.356925,6.42302 23.953405,15.71328 l 12.60628,7.50909 3.2102,-6.03034 c 1.76561,-3.31669 5.30264,-8.1812 7.86004,-10.81001 2.55741,-2.62882 5.43405,-6.27966 6.39252,-8.11299 1.58236,-3.02669 11.58393,-12.36325 18.5353,-17.30288 9.02002,-6.4096 15.31082,-17.40067 16.35415,-28.5734 l 0.82676,-8.85363 -3.86243,0.34627 c -2.12433,0.19045 -7.23002,-0.15416 -11.34598,-0.7658 -6.72195,-0.99889 -8.24791,-0.7378 -14.99379,2.56533 -7.21336,3.53204 -7.68176,3.59327 -11.84977,1.54907 -2.38676,-1.17058 -5.38956,-2.44774 -6.67289,-2.83813 -1.55297,-0.47242 -2.33333,-2.06156 -2.33333,-4.75165 0,-3.87751 -0.83411,-4.53444 -5.33334,-4.20046 -3.08554,0.22904 -5.47336,-1.81545 -5.4052,-4.62802 0.46806,-19.314989 0.45545,-19.290398 12.73854,-24.850227 20.2998,-9.188528 30.58328,-15.179194 32.66622,-19.029802 1.19007,-2.2 4.62851,-5.2 7.64098,-6.666667 5.90573,-2.875301 8.1958,-7.989761 5.68129,-12.68816 -0.727,-1.358424 -1.32183,-4.263152 -1.32183,-6.454952 V 29.53846 l 3.98524,3.985245 c 4.06963,4.069627 6.64423,4.094219 6.72868,0.06427 0.13227,-6.309468 7.48943,-10.981046 8.8856,-5.642056 0.58448,2.235017 1.0979,2.468468 2.63083,1.196244 1.53615,-1.274893 2.05063,-1.022379 2.65932,1.305233 1.04859,4.00983 2.59961,3.60267 4.24388,-1.114065 1.95487,-5.607737 5.72067,-5.194629 9.11577,1 1.5072,2.75 3.12478,6.632681 3.5946,8.62818 1.09944,4.66963 5.5137,7.231475 8.37238,4.858974 1.77162,-1.470309 1.9836,-1.169951 1.58144,2.240808 -0.38498,3.265071 0.0612,4.013219 2.60898,4.374389 1.69038,0.239627 3.94038,-0.28384 5,-1.16326 1.5343,-1.273348 1.92662,-1.191681 1.92662,0.40106 0,1.1 -0.9,2.746933 -2,3.659852 -2.85283,2.367637 -2.48643,3.588827 1.36694,4.555963 C 249.51547,58.76318 260,67.439254 260,69.446634 c 0,0.624986 -1.00757,0.749696 -2.23904,0.277136 -1.93763,-0.743537 -1.89276,-0.37891 0.33333,2.708652 1.88252,2.611039 3.37691,3.382217 5.57238,2.875644 3.42966,-0.791349 3.79289,0.431247 1.1869,3.995145 -1.58952,2.173791 -1.42728,2.821795 1.31564,5.254839 1.7208,1.526404 5.41702,6.975279 8.21382,12.108612 4.73268,8.686538 5.3807,9.319708 9.35102,9.136738 2.34627,-0.10814 4.26595,0.34187 4.26595,1 0,1.4471 -4.9298,6.52993 -6.33333,6.52993 -1.22475,0 -1.43284,12.40198 -0.22372,13.33333 2.11401,1.62837 6.43086,12.01765 7.23536,17.41323 1.01885,6.8332 2.6278,9.25344 6.15161,9.25344 5.17932,0 0.74741,6.52896 -4.49659,6.62426 -1.34232,0.0244 -2.33333,1.06174 -2.33333,2.4424 0,1.32 -0.62229,3.0223 -1.38288,3.78288 -0.95495,0.95495 -0.95495,2.50842 0,5.02014 1.96423,5.16632 1.71307,11.91782 -0.66443,17.85974 -1.83826,4.59429 -1.83904,5.51597 -0.008,9.02699 1.75684,3.36777 1.77311,3.9682 0.1172,4.32789 -1.05745,0.22971 -3.15409,-0.2414 -4.65918,-1.04691 -2.26291,-1.21106 -2.73655,-1.07074 -2.73655,0.81071 0,1.25139 0.99632,3.37617 2.21405,4.72175 2.57599,2.84644 2.30144,3.33828 -2.21405,3.96644 -1.83333,0.25504 -4.10341,1.49381 -5.04464,2.75282 -1.44261,1.92971 -1.19011,3.11475 1.60827,7.54767 7.36749,11.67084 15.53918,17.47552 30.10304,21.38335 21.01781,5.63957 26.01232,8.46625 42.66666,24.14758 9.05271,8.52381 11.00936,9.29895 23.47326,9.29895 16.10842,0 24.93862,5.99793 33.37006,22.66666 0.92734,1.83334 2.40391,9.03334 3.28127,16 1.85787,14.75244 3.93912,19.24934 8.27247,17.87398 2.45501,-0.77919 2.65885,-0.61622 1.29088,1.03209 -1.24523,1.50041 -1.25835,2.32352 -0.0563,3.52565 1.20215,1.20215 0.53888,1.56828 -2.84104,1.56828 -3.65441,0 -4.25473,0.39948 -3.50645,2.33334 0.49658,1.28333 1.57842,5.24658 2.4041,8.80723 1.78026,7.67716 5.67051,10.92099 11.66058,9.72298 5.11,-1.022 5.08414,0.83846 -0.0625,4.50325 -3.41176,2.42939 -4.40586,2.61069 -6.33333,1.15509 -1.93837,-1.46384 -2.03277,-1.44225 -0.62027,0.14182 1.97392,2.21368 11.29024,2.9834 17.1691,1.41853 3.68281,-0.98031 4.09237,-0.81847 3.5151,1.38901 -0.8017,3.06575 -8.27676,7.86208 -12.253,7.86208 -1.60801,0 -2.55085,0.59942 -2.09726,1.33334 1.15761,1.87305 11.80026,1.6664 13.73333,-0.26667 0.98077,-0.98077 1.6,-1.06076 1.6,-0.20665 0,2.4542 -4.94759,5.97409 -10.84465,7.71529 -5.56732,1.64383 -5.64111,1.73756 -2.63448,3.34667 1.82924,0.97897 4.93464,1.31001 7.59941,0.81009 3.54885,-0.66576 4.35323,-0.4468 3.78627,1.03069 -0.96627,2.51803 -6.46527,4.90391 -11.30262,4.90391 -4.985,0 -5.1774,2.88108 -0.50445,7.55403 2.97911,2.9791 4.28359,3.35105 9.87007,2.81426 l 6.43726,-0.61854 -2.56057,4.91257 c -2.39989,4.60429 -4.99291,6.62127 -11.02773,8.57791 -2.42052,0.7848 -2.42527,0.91432 -0.12667,3.45424 1.31348,1.45137 3.19515,2.63886 4.18149,2.63886 0.98634,0 1.79335,0.6 1.79335,1.33334 0,0.73333 -2.1,1.33333 -4.66667,1.33333 -5.36193,0 -5.72938,1.29005 -2.59716,9.11824 2.54387,6.35774 7.55203,9.50925 11.34611,7.1398 2.22119,-1.38715 2.58439,-1.25294 2.58439,0.95494 0,5.28775 -1.48458,6.78702 -6.7205,6.78702 -4.35872,0 -6.65181,-1.31094 -15.74292,-9 -5.85258,-4.95 -14.14256,-10.74839 -18.42216,-12.88531 -4.2796,-2.13691 -10.0205,-5.62894 -12.75756,-7.76006 -5.85513,-4.55891 -12.0168,-16.68632 -14.37918,-28.30115 -0.88895,-4.37057 -2.46687,-9.24469 -3.50648,-10.83135 -4.80964,-7.34042 -3.36936,-26.61693 3.52826,-47.22213 5.17172,-15.44944 5.72942,-18.91278 4.04983,-25.15026 -1.51393,-5.62231 -6.71869,-10.84974 -10.80269,-10.84974 -2.07286,0 -2.22316,0.58096 -1.12108,4.33334 1.42122,4.83902 0.51346,12.47836 -2.2761,19.1547 -1.01718,2.43447 -1.87556,8.19559 -1.90749,12.80247 -0.0896,12.92484 -1.79676,19.40802 -6.35859,24.14777 -4.06517,4.22371 -4.07012,4.2478 -4.46481,21.77727 l -0.39512,17.54889 5.63829,11.11987 c 3.10107,6.11593 5.6383,12.72986 5.6383,14.69765 0,7.50953 -5.27044,15.63056 -11.9358,18.39145 -7.24314,3.0002 -18.0661,21.50177 -23.41458,40.02659 -3.33253,11.54242 -3.15032,11.38192 -12.2227,10.76689 -2.83611,-0.19225 -5.1853,0.65815 -7.09586,2.56871 -2.5416,2.5416 -2.75772,3.775 -1.9625,11.20059 1.20033,11.20846 -0.36526,12.79714 -12.61104,12.79714 -4.9786,0 -11.68574,0.29376 -14.90476,0.6528 -3.21902,0.35904 -7.20276,0.0784 -8.85276,-0.62371 z"
         id="path3933-6" />
      <path
         style="fill:#ff0000;stroke-width:1.33333"
         d="m 148.8228,107.17134 c 3.28039,-1.92243 5.75557,-3.70408 5.50043,-3.95922 -0.77539,-0.7754 -12.9899,5.22056 -12.9899,6.37659 0,1.68375 1.09391,1.33067 7.48947,-2.41737 z"
         id="path4048" />
      <path
         style="fill:#00ffff;stroke-width:1.33333"
         d="m 192,70.70851 c 0,-1.804901 -0.63537,-2.381005 -2.03403,-1.844289 -1.56852,0.601896 -1.68373,1.20262 -0.50341,2.62482 C 191.51753,73.965129 192,73.816718 192,70.70851 Z"
         id="path4000" />
      <path
         style="fill:#6c5d53;stroke-width:1.33333"
         d="m 295.45929,512.6395 c 1.23963,-4.9391 -1.21601,-7.52988 -9.6251,-10.15479 -4.3088,-1.345 -8.25611,-2.45429 -8.7718,-2.46509 -0.51568,-0.0107 -2.28506,2.83036 -3.93194,6.31369 -1.64689,3.48333 -3.21082,6.74093 -3.47542,7.23911 -0.80415,1.51398 10.02346,3.12269 17.74973,2.63716 6.32515,-0.39748 7.37505,-0.86284 8.05453,-3.57008 z"
         id="path3960" />
      <path
         style="fill:#6c5d53;stroke-width:1.33333"
         d="m 256.77472,490.57697 c 2.33711,-1.93963 2.49076,-9.79526 0.22528,-11.51747 -2.34713,-1.78428 -13.32101,-5.72619 -15.94117,-5.72619 -2.08967,0 -3.6622,3.45184 -5.64654,12.39466 -0.45497,2.05038 -0.53004,4.20882 -0.16681,4.79652 1.08427,1.75438 19.42471,1.79909 21.52924,0.0525 z"
         id="path4008" />
      <path
         style="fill:#6c5d53;stroke-width:1.33333"
         d="m 115.39685,338.99999 c 1.6295,-9.99071 -0.1767,-20.43754 -4.41426,-25.53159 -2.15958,-2.59608 -2.67597,-2.66061 -7.64926,-0.9558 -4.949869,1.69677 -5.550657,2.46632 -8.355983,10.70313 -3.587898,10.53454 -2.730184,13.34027 4.711994,15.41378 2.737529,0.7627 6.477329,2.56974 8.310659,4.01564 4.99294,3.93774 6.26209,3.3123 7.39685,-3.64516 z"
         id="path4030" />
      <path
         style="fill:#6c5d53;stroke-width:1.33333"
         d="m 50.124888,252.99999 c 7.740384,-8.96665 12.567483,-18.19037 12.803369,-24.46497 0.193064,-5.13552 -1.654774,-7.14766 -6.594924,-7.18128 -1.65,-0.0107 -3.024022,-0.77042 -3.053384,-1.68708 -0.02936,-0.91667 -0.91215,-0.0861 -1.961754,1.84573 -1.049604,1.93183 -3.981418,4.73553 -6.515142,6.23047 -10.194761,6.01505 -12.217062,15.94114 -4.805672,23.58776 5.308064,5.47653 6.65005,5.69774 10.127507,1.66937 z"
         id="path4036" />
      <path
         style="fill:#000000;stroke-width:1.33333"
         d="m 268.33333,520.02907 c -3.84096,-1.63432 -3.77772,-3.91631 0.33334,-12.02909 C 270.5,504.38207 272,500.52202 272,499.42209 c 0,-3.14175 10.75889,-13.05991 16.1708,-14.90716 2.26885,-0.77443 5.16253,-5.9388 5.16253,-9.21362 0,-1.04858 1.59572,-2.95208 3.54606,-4.22998 6.05713,-3.96879 30.00749,-31.42846 32.76976,-37.57134 2.91141,-6.47453 2.12902,-9.53458 -4.0216,-15.72941 -3.77775,-3.8049 -12.62448,-9.88478 -13.34082,-9.16844 -0.29234,0.29235 0.18682,2.52646 1.0648,4.96468 1.30811,3.63275 1.20327,5.7572 -0.58069,11.76649 -1.7672,5.95282 -3.11935,7.9139 -7.18264,10.41731 -6.06588,3.7372 -17.65405,17.32296 -19.84628,23.26743 -0.87527,2.3734 -1.62527,6.17228 -1.66667,8.44194 -0.0977,5.36076 -3.9825,8.94872 -8.46958,7.82254 -5.46086,-1.37059 -9.46255,3.57476 -8.37847,10.35422 0.99455,6.21955 -1.35108,8.91758 -7.8136,8.9875 -2.15587,0.0233 -7.27071,0.73453 -11.36633,1.58046 -7.25816,1.49915 -14.86739,0.92682 -18.52704,-1.39354 -1.46412,-0.92831 -1.04311,-2.78524 2.18716,-9.64706 2.20016,-4.6736 4.40604,-9.84606 4.90198,-11.49437 0.54576,-1.81391 2.31399,-3.29343 4.4795,-3.74812 7.03562,-1.47724 12.41714,-4.67541 14.64613,-8.70403 5.03632,-9.10249 10.60625,-17.15497 16.93205,-24.47876 3.66646,-4.24488 8.12647,-9.76785 9.91115,-12.27326 l 3.24487,-4.55531 -3.04844,-8.28846 c -1.67663,-4.55867 -4.15904,-11.3349 -5.51647,-15.05828 -1.35743,-3.72339 -5.56525,-12.0321 -9.35075,-18.46379 -4.32582,-7.34977 -8.19384,-16.26377 -10.41208,-23.99515 -2.18034,-7.59927 -4.92438,-13.95902 -7.17902,-16.6385 -2.0073,-2.38555 -3.64964,-5.17336 -3.64964,-6.19515 0,-3.38736 -7.43312,-7.42882 -23.47604,-12.76416 -8.72151,-2.90048 -19.7573,-6.85565 -24.52396,-8.78926 -9.225,-3.74215 -27.47708,-15.16652 -33.8347,-21.17787 -2.10908,-1.99421 -6.00908,-4.11368 -8.66666,-4.70995 -2.65759,-0.59625 -8.13198,-1.77762 -12.16531,-2.62526 -13.71552,-2.88244 -28.64005,-7.58994 -39.8094,-12.55667 -11.078901,-4.9265 -11.157756,-4.93988 -13.764347,-2.33328 -3.978188,3.97819 -2.061949,11.40752 4.889147,18.9554 7.36183,7.99387 8.13583,10.38977 4.579412,14.17541 -4.312843,4.5908 -2.731511,6.5547 5.277868,6.5547 h 6.92846 l 3.36701,8 c 4.66866,11.09273 5.90514,28.05485 2.35931,32.36525 l -2.49413,3.03192 -8,-2.81155 c -4.4,-1.54634 -9.955338,-3.73161 -12.345199,-4.85614 -4.813456,-2.26492 -12.856231,-13.07939 -11.791236,-15.85472 0.373674,-0.97379 -1.39276,-4.25074 -3.92541,-7.28212 -3.987962,-4.77328 -4.604818,-6.46546 -4.604818,-12.63199 0,-3.91621 -0.632238,-8.78329 -1.404972,-10.81575 -2.808548,-7.38704 -7.928362,-28.31711 -7.928362,-32.41158 0,-4.60223 3.313243,-12.06665 5.356036,-12.06665 0.708156,0 3.873192,-1.97367 7.033414,-4.38591 5.579232,-4.25873 6.014557,-4.36135 15.011537,-3.53849 8.11232,0.74194 32.09272,-0.4582 33.30113,-1.66662 0.24247,-0.24246 -2.84099,-4.33368 -6.85213,-9.09158 -4.01114,-4.75791 -10.2279,-13.15074 -13.81502,-18.65074 -10.1862,-15.61813 -12.93832,-18.4599 -19.830547,-20.4765 -8.715057,-2.54995 -11.175642,-1.02583 -16.090918,9.96697 -2.251987,5.03647 -5.32022,10.38292 -6.818296,11.881 -2.449288,2.44928 -2.930126,2.51743 -4.771396,0.67615 -1.126191,-1.12619 -2.909847,-2.04762 -3.963679,-2.04762 -1.582292,0 -1.625963,0.46452 -0.2507,2.66667 1.108764,1.77541 3.109369,2.66667 5.985896,2.66667 5.116071,0 5.965443,2.15768 5.248664,13.33333 -0.432469,6.74284 -3.125067,13.30357 -11.120915,27.09699 -2.539914,4.38153 -4.673784,3.69344 -13.766158,-4.43904 l -8.594279,-7.68698 -0.12492,-13.15216 c -0.07311,-7.69637 -0.811416,-14.42369 -1.77984,-16.21744 -3.189013,-5.9068 2.474751,-15.39622 12.021228,-20.1411 9.635015,-4.78891 19.520503,-14.35823 32.102945,-31.0762 2.991088,-3.97419 9.520703,-4.10172 16.624296,-0.32471 3.519666,1.87143 7.905602,4.72366 9.746524,6.33828 4.255965,3.73282 8.356925,6.42302 23.953405,15.71328 l 12.60628,7.50909 3.2102,-6.03034 c 1.76561,-3.31669 5.30264,-8.1812 7.86004,-10.81001 2.55741,-2.62882 5.43405,-6.27966 6.39252,-8.11299 1.58236,-3.02669 11.58393,-12.36325 18.5353,-17.30288 9.02002,-6.4096 15.31082,-17.40067 16.35415,-28.5734 l 0.82676,-8.85363 -3.86243,0.34627 c -2.12433,0.19045 -7.23002,-0.15416 -11.34598,-0.7658 -6.72195,-0.99889 -8.24791,-0.7378 -14.99379,2.56533 -7.21336,3.53204 -7.68176,3.59327 -11.84977,1.54907 -2.38676,-1.17058 -5.38956,-2.44774 -6.67289,-2.83813 -1.55297,-0.47242 -2.33333,-2.06156 -2.33333,-4.75165 0,-3.87751 -0.83411,-4.53444 -5.33334,-4.20046 -3.08554,0.22904 -5.47336,-1.81545 -5.4052,-4.62802 0.46806,-19.314989 0.45545,-19.290398 12.73854,-24.850227 20.2998,-9.188528 30.58328,-15.179194 32.66622,-19.029802 1.19007,-2.2 4.62851,-5.2 7.64098,-6.666667 5.90573,-2.875301 8.1958,-7.989761 5.68129,-12.68816 -0.727,-1.358424 -1.32183,-4.263152 -1.32183,-6.454952 V 29.53846 l 3.98524,3.985245 c 4.06963,4.069627 6.64423,4.094219 6.72868,0.06427 0.13227,-6.309468 7.48943,-10.981046 8.8856,-5.642056 0.58448,2.235017 1.0979,2.468468 2.63083,1.196244 1.53615,-1.274893 2.05063,-1.022379 2.65932,1.305233 1.04859,4.00983 2.59961,3.60267 4.24388,-1.114065 1.95487,-5.607737 5.72067,-5.194629 9.11577,1 1.5072,2.75 3.12478,6.632681 3.5946,8.62818 1.09944,4.66963 5.5137,7.231475 8.37238,4.858974 1.77162,-1.470309 1.9836,-1.169951 1.58144,2.240808 -0.38498,3.265071 0.0612,4.013219 2.60898,4.374389 1.69038,0.239627 3.94038,-0.28384 5,-1.16326 1.5343,-1.273348 1.92662,-1.191681 1.92662,0.40106 0,1.1 -0.9,2.746933 -2,3.659852 -2.85283,2.367637 -2.48643,3.588827 1.36694,4.555963 C 249.51547,58.76318 260,67.439254 260,69.446634 c 0,0.624986 -1.00757,0.749696 -2.23904,0.277136 -1.93763,-0.743537 -1.89276,-0.37891 0.33333,2.708652 1.88252,2.611039 3.37691,3.382217 5.57238,2.875644 3.42966,-0.791349 3.79289,0.431247 1.1869,3.995145 -1.58952,2.173791 -1.42728,2.821795 1.31564,5.254839 1.7208,1.526404 5.41702,6.975279 8.21382,12.108612 4.73268,8.686538 5.3807,9.319708 9.35102,9.136738 2.34627,-0.10814 4.26595,0.34187 4.26595,1 0,1.4471 -4.9298,6.52993 -6.33333,6.52993 -1.22475,0 -1.43284,12.40198 -0.22372,13.33333 2.11401,1.62837 6.43086,12.01765 7.23536,17.41323 1.01885,6.8332 2.6278,9.25344 6.15161,9.25344 5.17932,0 0.74741,6.52896 -4.49659,6.62426 -1.34232,0.0244 -2.33333,1.06174 -2.33333,2.4424 0,1.32 -0.62229,3.0223 -1.38288,3.78288 -0.95495,0.95495 -0.95495,2.50842 0,5.02014 1.96423,5.16632 1.71307,11.91782 -0.66443,17.85974 -1.83826,4.59429 -1.83904,5.51597 -0.008,9.02699 1.75684,3.36777 1.77311,3.9682 0.1172,4.32789 -1.05745,0.22971 -3.15409,-0.2414 -4.65918,-1.04691 -2.26291,-1.21106 -2.73655,-1.07074 -2.73655,0.81071 0,1.25139 0.99632,3.37617 2.21405,4.72175 2.57599,2.84644 2.30144,3.33828 -2.21405,3.96644 -1.83333,0.25504 -4.10341,1.49381 -5.04464,2.75282 -1.44261,1.92971 -1.19011,3.11475 1.60827,7.54767 7.36749,11.67084 15.53918,17.47552 30.10304,21.38335 21.01781,5.63957 26.01232,8.46625 42.66666,24.14758 9.05271,8.52381 11.00936,9.29895 23.47326,9.29895 16.10842,0 24.93862,5.99793 33.37006,22.66666 0.92734,1.83334 2.40391,9.03334 3.28127,16 1.85787,14.75244 3.93912,19.24934 8.27247,17.87398 2.45501,-0.77919 2.65885,-0.61622 1.29088,1.03209 -1.24523,1.50041 -1.25835,2.32352 -0.0563,3.52565 1.20215,1.20215 0.53888,1.56828 -2.84104,1.56828 -3.65441,0 -4.25473,0.39948 -3.50645,2.33334 0.49658,1.28333 1.57842,5.24658 2.4041,8.80723 1.78026,7.67716 5.67051,10.92099 11.66058,9.72298 5.11,-1.022 5.08414,0.83846 -0.0625,4.50325 -3.41176,2.42939 -4.40586,2.61069 -6.33333,1.15509 -1.93837,-1.46384 -2.03277,-1.44225 -0.62027,0.14182 1.97392,2.21368 11.29024,2.9834 17.1691,1.41853 3.68281,-0.98031 4.09237,-0.81847 3.5151,1.38901 -0.8017,3.06575 -8.27676,7.86208 -12.253,7.86208 -1.60801,0 -2.55085,0.59942 -2.09726,1.33334 1.15761,1.87305 11.80026,1.6664 13.73333,-0.26667 0.98077,-0.98077 1.6,-1.06076 1.6,-0.20665 0,2.4542 -4.94759,5.97409 -10.84465,7.71529 -5.56732,1.64383 -5.64111,1.73756 -2.63448,3.34667 1.82924,0.97897 4.93464,1.31001 7.59941,0.81009 3.54885,-0.66576 4.35323,-0.4468 3.78627,1.03069 -0.96627,2.51803 -6.46527,4.90391 -11.30262,4.90391 -4.985,0 -5.1774,2.88108 -0.50445,7.55403 2.97911,2.9791 4.28359,3.35105 9.87007,2.81426 l 6.43726,-0.61854 -2.56057,4.91257 c -2.39989,4.60429 -4.99291,6.62127 -11.02773,8.57791 -2.42052,0.7848 -2.42527,0.91432 -0.12667,3.45424 1.31348,1.45137 3.19515,2.63886 4.18149,2.63886 0.98634,0 1.79335,0.6 1.79335,1.33334 0,0.73333 -2.1,1.33333 -4.66667,1.33333 -5.36193,0 -5.72938,1.29005 -2.59716,9.11824 2.54387,6.35774 7.55203,9.50925 11.34611,7.1398 2.22119,-1.38715 2.58439,-1.25294 2.58439,0.95494 0,5.28775 -1.48458,6.78702 -6.7205,6.78702 -4.35872,0 -6.65181,-1.31094 -15.74292,-9 -5.85258,-4.95 -14.14256,-10.74839 -18.42216,-12.88531 -4.2796,-2.13691 -10.0205,-5.62894 -12.75756,-7.76006 -5.85513,-4.55891 -12.0168,-16.68632 -14.37918,-28.30115 -0.88895,-4.37057 -2.46687,-9.24469 -3.50648,-10.83135 -4.80964,-7.34042 -3.36936,-26.61693 3.52826,-47.22213 5.17172,-15.44944 5.72942,-18.91278 4.04983,-25.15026 -1.51393,-5.62231 -6.71869,-10.84974 -10.80269,-10.84974 -2.07286,0 -2.22316,0.58096 -1.12108,4.33334 1.42122,4.83902 0.51346,12.47836 -2.2761,19.1547 -1.01718,2.43447 -1.87556,8.19559 -1.90749,12.80247 -0.0896,12.92484 -1.79676,19.40802 -6.35859,24.14777 -4.06517,4.22371 -4.07012,4.2478 -4.46481,21.77727 l -0.39512,17.54889 5.63829,11.11987 c 3.10107,6.11593 5.6383,12.72986 5.6383,14.69765 0,7.50953 -5.27044,15.63056 -11.9358,18.39145 -7.24314,3.0002 -18.0661,21.50177 -23.41458,40.02659 -3.33253,11.54242 -3.15032,11.38192 -12.2227,10.76689 -2.83611,-0.19225 -5.1853,0.65815 -7.09586,2.56871 -2.5416,2.5416 -2.75772,3.775 -1.9625,11.20059 1.20033,11.20846 -0.36526,12.79714 -12.61104,12.79714 -4.9786,0 -11.68574,0.29376 -14.90476,0.6528 -3.21902,0.35904 -7.20276,0.0784 -8.85276,-0.62371 z m 27.12596,-7.38957 c 1.23963,-4.9391 -1.21601,-7.52988 -9.6251,-10.15479 -4.3088,-1.345 -8.25611,-2.45429 -8.7718,-2.46509 -0.51568,-0.0107 -2.28506,2.83036 -3.93194,6.31369 -1.64689,3.48333 -3.21082,6.74093 -3.47542,7.23911 -0.80415,1.51398 10.02346,3.12269 17.74973,2.63716 6.32515,-0.39748 7.37505,-0.86284 8.05453,-3.57008 z m -0.12596,-13.97285 c -1.01386,-3.19442 0.28822,-3.42247 3.41004,-0.59726 2.1025,1.90274 2.53139,1.6611 5.32487,-3 1.67101,-2.78817 3.94067,-6.12872 5.04369,-7.42344 1.90596,-2.2372 2.15778,-2.21094 5.07436,0.52904 3.66787,3.44579 6.47134,1.93678 7.82139,-4.21 0.46517,-2.11789 2.08263,-6.41073 3.59436,-9.53964 1.51172,-3.12892 3.81536,-8.1776 5.11919,-11.21932 2.71038,-6.32309 11.6411,-19.20605 13.314,-19.20605 0.61512,0 1.47878,-1.13547 1.91926,-2.52327 0.44047,-1.3878 2.65471,-3.29117 4.92052,-4.2297 7.21447,-2.98832 10.26876,-15.41867 5.14098,-20.92271 -1.45788,-1.56484 -4.09824,-6.69097 -5.86748,-11.39141 -2.96931,-7.88872 -3.16083,-9.84236 -2.48928,-25.39216 l 0.72752,-16.84591 4.69398,-5.48388 c 6.38602,-7.46061 7.92142,-16.56086 4.20983,-24.95151 -3.12459,-7.06364 -3.21304,-7.74158 -0.7426,-5.6913 2.79328,2.31823 3.5936,0.53956 6.25501,-13.90148 1.29886,-7.04762 0.66442,-12.09529 -1.91016,-15.19746 -1.48916,-1.79432 -2.28114,-9.8677 -0.89281,-9.10108 3.72191,2.05514 11.42973,5.15302 17.82697,7.1649 4.4939,1.4133 9.88794,4.35692 12.66667,6.91244 l 4.83969,4.45094 -5.30378,-4.11487 c -9.24227,-7.17047 -9.97128,-4.41616 -1.9808,7.48359 4.76341,7.09386 11.16309,21.7105 12.68384,28.96941 1.43612,6.85497 7.93688,24.5145 10.22832,27.78558 4.94389,7.05747 16.11712,9.97536 21.78425,5.68895 2.39761,-1.81345 2.13509,-1.96071 -3.56535,-2 -4.08841,-0.0281 -7.29345,-0.93907 -9.55024,-2.71425 -4.31549,-3.39458 -8.9629,-12.91652 -8.9629,-18.36384 0,-2.36043 -1.09143,-5.23651 -2.49663,-6.57903 -1.37315,-1.3119 -2.76373,-4.29784 -3.0902,-6.6354 -0.52023,-3.725 -0.30331,-4.09477 1.75571,-2.99282 1.29209,0.6915 2.71809,1.85406 3.16888,2.58345 0.45078,0.72939 1.4888,1.32616 2.30668,1.32616 0.81788,0 0.29349,-1.35 -1.16531,-3 -2.58663,-2.92564 -6.34789,-10.97789 -7.62943,-16.33333 -0.35096,-1.46667 -1.02502,-4.16667 -1.49792,-6 -0.66061,-2.5611 -0.5354,-2.86999 0.54046,-1.33334 1.97332,2.81851 1.7733,0.26934 -0.60808,-7.74962 -2.16574,-7.29286 -7.18502,-13.12919 -12.45167,-14.47863 -2.72856,-0.69912 -2.86325,-0.98187 -0.97196,-2.04028 3.71648,-2.07985 0.70099,-4.52072 -8.5272,-6.90231 -1.83333,-0.47314 -0.33333,0.63994 3.33333,2.47351 3.66667,1.83356 5.37472,3.01855 3.79568,2.63331 -6.23644,-1.52154 -18.67362,-3.24655 -22.46234,-3.1155 -2.2,0.0761 1.28272,0.90534 7.73937,1.84276 6.45667,0.93743 12.15667,2.16028 12.66667,2.71746 0.51001,0.55717 -0.57271,0.62853 -2.40604,0.15857 -1.83334,-0.46995 -8.28334,-1.24705 -14.33332,-1.72689 -9.63287,-0.76402 -13.86528,-2.19315 -13.26479,-4.47904 0.0963,-0.36667 -1.60469,-2.73734 -3.78004,-5.26815 -17.80792,-20.7178 -27.93461,-26.2963 -53.95519,-29.72233 -1.83333,-0.24139 -4.37754,-1.03789 -5.6538,-1.77001 -3.92785,-2.25318 -21.01286,-22.13118 -21.01286,-24.44796 0,-1.20118 -1.91796,-4.51079 -4.26214,-7.35467 -2.34417,-2.84389 -4.3449,-6.29415 -4.44606,-7.66724 -0.1012,-1.37309 -1.74503,-4.13297 -3.65304,-6.13308 -1.90802,-2.00011 -4.1525,-5.43656 -4.98774,-7.63656 l -1.51861,-4 -1.85229,3.33334 c -2.54828,4.58579 -2.40272,2.5268 0.29862,-4.22455 1.6307,-4.07549 1.81612,-5.75495 0.67732,-6.13455 -1.16901,-0.38966 -1.192,-1.22544 -0.0903,-3.28397 1.24492,-2.32615 1.13818,-2.63096 -0.67732,-1.93429 -2.28187,0.87564 -3.02522,-1.06084 -0.90923,-2.3686 1.47329,-0.91054 5.86496,-15.38764 4.94651,-16.30611 -0.34767,-0.34765 0.21682,-2.66389 1.25442,-5.14719 2.27055,-5.43421 2.34687,-6.37597 0.42016,-5.1852 -1.04173,0.64383 -1.0769,0.17856 -0.12146,-1.6067 0.73968,-1.38212 1.38536,-4.00454 1.43482,-5.82756 0.0495,-1.82304 0.47468,-5.94363 0.94492,-9.15687 0.61658,-4.21316 0.4307,-5.58004 -0.66658,-4.90188 -1.0984,0.67885 -1.27095,-0.62698 -0.6204,-4.69526 0.67161,-4.20007 0.4962,-5.38536 -0.68867,-4.65308 -1.14503,0.70767 -1.34957,0.0253 -0.73109,-2.43893 1.27133,-5.06539 -1.82958,-16.816325 -4.19778,-15.907559 -1.20274,0.461537 -1.90454,-0.173903 -1.93466,-1.751716 -0.026,-1.361792 -0.85048,-3.925756 -1.83223,-5.697697 l -1.78499,-3.221711 -2.34232,4.936054 c -1.28826,2.71483 -2.64925,4.629099 -3.02442,4.253932 -0.37518,-0.375166 -0.0644,-1.446621 0.69045,-2.381009 1.83536,-2.271703 3.55176,-13.032221 2.07875,-13.032221 -0.63968,0 -2.25088,1.84154 -3.58046,4.092311 -3.01249,5.09975 -4.26521,4.364436 -1.52296,-0.893936 2.4897,-4.774055 2.60578,-7.703828 0.26971,-6.807399 -0.96929,0.371954 -2.47437,-0.463853 -3.34463,-1.857347 -1.14226,-1.829051 -3.15497,-2.544903 -7.23764,-2.574174 -4.48989,-0.03219 -5.1745,-0.320625 -3.32201,-1.399602 2.67253,-1.556608 6.33331,-8.058896 6.33331,-11.249268 0,-1.185346 -1.45412,-4.065142 -3.23138,-6.399546 -1.77725,-2.334404 -4.86825,-8.023368 -6.86889,-12.642141 -3.90188,-9.00808 -6.1664,-9.400616 -6.1664,-1.068896 0,2.64 -0.54,4.8 -1.2,4.8 -0.66,0 -1.2,-1.235411 -1.2,-2.745356 0,-3.935187 -2.17521,-2.045225 -3.12779,2.71761 -0.83521,4.176082 -4.26264,5.437315 -7.0907,2.609256 -2.0419,-2.041892 -10.33923,0.37577 -10.87723,3.169384 -0.35935,1.865936 0.77607,2.278959 6.66463,2.424339 l 7.09776,0.175233 -8.8557,1.03396 c -10.95493,1.27906 -13.39901,2.565637 -21.84916,11.501534 -3.70002,3.912721 -7.85237,7.114039 -9.22742,7.114039 -1.37506,0 -5.02382,1.478997 -8.10836,3.286659 -3.08455,1.807663 -5.84456,3.050362 -6.13338,2.761554 -0.2888,-0.28881 -4.7178,1.709766 -9.84221,4.441278 l -9.31711,4.966387 v 9.272061 9.272057 l 5.86786,0.41983 c 3.25924,0.23319 6.26764,-0.22704 6.76713,-1.03524 1.2882,-2.08435 14.69835,-3.51926 14.69835,-1.57276 0,1.6904 -11.72196,9.45648 -14.33334,9.49617 -0.91666,0.0139 -1.66666,0.69038 -1.66666,1.50321 0,0.92669 1.29606,1.15259 3.47508,0.60569 2.5033,-0.62829 3.99474,-0.20263 5.33333,1.52212 1.73537,2.23598 1.97391,2.24586 3.60728,0.14938 0.96196,-1.23472 3.37596,-2.65328 5.36444,-3.15236 1.98847,-0.49907 4.50141,-2.17235 5.58431,-3.7184 1.54158,-2.20093 1.96889,-2.34351 1.96889,-0.65696 0,1.18471 0.82329,2.46994 1.82953,2.85608 4.72767,1.81417 14.38198,2.39055 18.40383,1.09872 2.43832,-0.78318 7.64089,-1.55442 11.56128,-1.71385 5.81643,-0.23653 8.23285,-1.1335 13.13263,-4.87476 3.30256,-2.52169 6.87466,-6.461832 7.93801,-8.755877 l 1.93336,-4.17099 -0.82089,3.999999 c -1.57508,7.675108 -15.44446,16.666668 -25.70812,16.666668 -2.19204,0 -2.65875,1.30276 -3.32846,9.29098 -1.31773,15.71791 -7.10157,25.31072 -20.91761,34.69302 -10.10597,6.86284 -18.8968,16.84436 -22.82496,25.91656 -3.16192,7.30253 -6.16605,10.23834 -4.53595,4.43277 0.60535,-2.15593 0.0147,-1.75483 -2.09954,1.42565 -1.61804,2.43411 -3.46195,7.20939 -4.09758,10.61173 -1.43218,7.66616 -3.79886,10.57238 -3.79886,4.66492 0,-5.85036 -5.31738,-11.58394 -15.1023,-16.28441 -4.52707,-2.1747 -12.65336,-7.5741 -18.05842,-11.99865 -5.405055,-4.42455 -10.353823,-7.71927 -10.997259,-7.3216 -0.643436,0.39767 -2.991732,-0.35317 -5.218434,-1.66852 -3.676966,-2.17203 -4.378426,-2.20637 -7.642688,-0.3742 -1.976774,1.10955 -5.38867,4.70108 -7.581989,7.98121 -5.354479,8.00767 -15.227481,17.33692 -25.275509,23.88347 -10.256952,6.68266 -13.905783,13.32638 -11.433414,20.81773 0.889027,2.69379 1.260266,8.26959 0.864946,12.99101 -0.380919,4.54942 -0.39675,6.93592 -0.03517,5.30336 0.361571,-1.63254 4.21754,-6.19002 8.568822,-10.1277 8.120212,-7.34838 10.034093,-11.57067 5.244749,-11.57067 -3.289223,0 -3.462329,-2.90335 -0.333333,-5.59068 4.155186,-3.56868 6.837674,-3.80539 9.594217,-0.84659 l 2.613301,2.80506 3.062908,-3.41138 c 1.684599,-1.87626 4.872167,-6.89696 7.083483,-11.15709 4.747731,-9.1466 7.727999,-10.03258 18.5434,-5.51265 7.722413,3.22732 12.11503,7.51414 21.11804,20.6094 3.49178,5.07893 9.34178,12.1825 13,15.78572 6.51232,6.4144 6.65131,6.47572 6.65131,2.93476 0,-1.98911 -0.6,-3.61655 -1.33333,-3.61655 -0.73333,0 -1.33333,-0.6 -1.33333,-1.33333 0,-0.73334 0.92111,-1.33334 2.04691,-1.33334 1.1258,0 3.60307,-1.01964 5.50506,-2.26586 l 3.45815,-2.26587 -2.11308,4.08624 c -5.26382,10.17909 -3.45742,14.87291 6.12946,15.92713 L 148,241.50848 v -5.02318 c 0,-5.8283 4.78591,-27.65779 7.09335,-32.35418 2.14452,-4.3648 10.03814,-10.32521 14.90665,-11.25589 l 4,-0.76466 -4.09023,1.84934 c -7.04448,3.18505 -12.29646,9.09665 -13.15925,14.81195 -0.43408,2.87546 -1.89411,10.02813 -3.24448,15.8948 -1.35039,5.86666 -2.17748,11.41666 -1.83799,12.33333 0.40075,1.08207 3.45126,1.66667 8.69683,1.66667 9.86276,0 9.37973,1.01497 -1.16573,2.44946 l -7.86582,1.06999 4.66667,2.20037 4.66667,2.20039 -6,-0.7038 c -6.31104,-0.74028 -16.64491,-0.78601 -50.74474,-0.22461 -20.461735,0.33688 -20.804193,0.39156 -25.102305,4.0082 -2.396657,2.01666 -4.940488,3.66666 -5.652957,3.66666 -2.179763,0 -5.058356,8.3777 -3.730873,10.85812 0.65607,1.22588 1.521342,4.96536 1.922828,8.30996 0.401485,3.3446 1.646112,8.65003 2.765837,11.78984 1.808753,5.07191 2.998917,13.34583 3.155932,21.93977 0.02912,1.59375 1.635928,4.77898 3.570689,7.07831 1.934762,2.29933 3.906978,6.09537 4.382704,8.43564 0.599056,2.94696 1.72431,4.37976 3.660368,4.66076 2.454903,0.35631 2.971128,-0.59184 4.237964,-7.78379 1.230644,-6.98648 1.121567,-8.67938 -0.742536,-11.52437 -2.122525,-3.23939 -2.063944,-3.42968 2.045999,-6.64619 2.525212,-1.97628 4.231087,-4.52489 4.231087,-6.32134 0,-3.40744 -12.876603,-17.28675 -13.850592,-14.92915 -0.758302,1.83552 -1.168135,-2.39465 -0.826826,-8.53423 0.142687,-2.56666 0.876943,-5.41666 1.631683,-6.33333 2.674888,-3.24877 11.689745,-1.68668 29.393868,5.09339 9.70853,3.71802 20.65187,7.08945 24.31853,7.49206 3.66667,0.40262 7.99556,1.5606 9.61976,2.57328 5.55224,3.46186 9.09912,2.37576 11.40406,-3.49206 1.7759,-4.521 2.68617,-5.33334 5.97629,-5.33334 2.13471,0 6.83297,-1.46877 10.44059,-3.26393 l 6.5593,-3.26393 L 179,267.83316 c -4.83028,4.11803 -5.02697,5.19743 -2.33865,12.83349 l 1.87762,5.33334 -3.60282,-4.19242 c -4.22972,-4.92189 -6.93708,-5.99712 -9.25758,-3.67664 -0.92321,0.92323 -1.67857,1.94072 -1.67857,2.26112 0,0.93084 18.80953,16.00623 24.69648,19.79363 10.24415,6.59064 16.14627,8.92693 33.06845,13.08981 17.67646,4.34843 24.37456,6.4814 20.90174,6.65604 -1.1,0.0553 0.7,1.63795 4,3.51696 3.3,1.87902 7.2,4.5016 8.66666,5.82798 1.46667,1.32637 4.61667,3.39718 7,4.6018 l 4.33334,2.1902 v -5.05487 c 0,-8.05543 -5.21794,-16.35045 -13.42818,-21.34695 -8.10785,-4.93418 -8.0718,-5.13688 0.40031,-2.25013 8.34332,2.84285 12.80839,9.43609 14.53657,21.46516 2.9859,20.78329 4.35498,26.84237 7.78455,34.45164 6.81705,15.12514 17.08615,28.66666 21.73911,28.66666 1.50857,0 16.54774,11.9271 27.6343,21.9159 7.86202,7.08354 9.58596,11.07941 7.51447,17.41743 -1.11385,3.40798 -5.28236,10.43456 -7.51447,12.66667 -0.36666,0.36667 -3.61732,4.56667 -7.22366,9.33333 -3.60636,4.76667 -9.67864,11.66667 -13.49398,15.33334 -3.81533,3.66666 -7.89313,8.5452 -9.06177,10.84117 -2.00788,3.94479 -7.83812,9.69303 -12.44783,12.27275 -1.87886,1.05146 -1.86173,1.51078 0.17211,4.6148 1.98653,3.03185 4.12104,3.9393 11.14499,4.73817 1.17418,0.13355 1.47592,-0.68429 0.91014,-2.46689 z M 324,469.33331 c 0.78493,-1.46666 1.72716,-2.66666 2.09383,-2.66666 0.36666,0 0.0244,1.2 -0.7605,2.66666 -0.78493,1.46667 -1.72716,2.66667 -2.09382,2.66667 -0.36667,0 -0.0244,-1.2 0.76049,-2.66667 z m 2.86172,-4.70673 c 4.92807,-14.35115 8.84032,-22.27061 13.80292,-27.94085 3.19988,-3.65618 6.24352,-6.22204 6.76364,-5.70191 0.52013,0.52012 -1.08845,3.26747 -3.57463,6.10521 -7.63873,8.71891 -8.49648,10.02742 -11.08545,16.91095 -2.05127,5.45389 -7.49085,15.24047 -5.90648,10.6266 z m 75.91021,-136.07103 c 0.064,-1.55327 0.37992,-1.8692 0.80555,-0.80556 0.38516,0.96249 0.3378,2.11249 -0.1052,2.55556 -0.44305,0.44305 -0.75819,-0.34446 -0.70029,-1.75 z m -1.33333,-5.33334 c 0.064,-1.55326 0.37992,-1.8692 0.80555,-0.80556 0.38516,0.9625 0.3378,2.1125 -0.1052,2.55556 -0.44306,0.44306 -0.75819,-0.34445 -0.7003,-1.75 z m -4.80364,-11.55556 -2.1002,-4.33333 2.73263,3.14771 c 1.50293,1.73125 2.73261,3.68125 2.73261,4.33333 0,2.33092 -1.29843,1.11636 -3.36504,-3.14771 z m 0.31697,-8.44544 c -2.0431,-2.40017 -6.8109,-5.90682 -10.59513,-7.79258 -3.78421,-1.88575 -5.98005,-3.42864 -4.87964,-3.42864 4.11653,0 21.72764,13.4829 19.75032,15.12065 -0.30845,0.25548 -2.23244,-1.49927 -4.27555,-3.89943 z M 370,290.04813 c -5.25864,-2.40788 -4.06941,-2.44966 3.33333,-0.11706 3.3,1.03981 4.8,1.90364 3.33334,1.91962 C 375.2,291.86669 372.2,291.05555 370,290.04817 Z M 145.96697,269.27988 c -0.55626,-0.90005 0.35814,-1.08177 2.6053,-0.51777 2.036,0.511 4.27916,0.19112 5.44505,-0.77649 1.15051,-0.95483 1.98268,-1.0772 1.98268,-0.29154 0,2.77834 -8.46873,4.11689 -10.03303,1.5858 z m 39.37499,-81.19234 c 1.83809,-0.55912 5.25829,-2.00755 7.60045,-3.21873 2.34218,-1.21118 6.8383,-2.14336 9.99138,-2.07152 5.65585,0.1288 5.6254,0.15225 -2.26712,1.74009 -4.4,0.8852 -9.31056,2.32643 -10.91235,3.20271 -1.60179,0.87628 -4.00179,1.54166 -5.33333,1.47864 -1.67523,-0.0793 -1.39154,-0.42775 0.92097,-1.13119 z m -6.67529,-4.61156 c 0,-0.28821 0.93116,-0.88133 2.06925,-1.31807 1.18656,-0.45532 1.72176,-0.2318 1.25464,0.52402 -0.78301,1.26694 -3.32389,1.87393 -3.32389,0.79405 z m 6.66666,-3.82091 c 1.1,-1.12965 4.1,-2.3906 6.66667,-2.80213 l 4.66667,-0.74821 L 192,177.71902 c -2.56667,0.88787 -5.56667,2.14883 -6.66667,2.80213 -1.77777,1.05584 -1.77777,0.95962 0,-0.86608 z m 20,-64.22792 c 0,-0.36666 1.2,-1.30889 2.66667,-2.09382 1.46667,-0.78494 2.66667,-1.12716 2.66667,-0.76049 0,0.36666 -1.2,1.30889 -2.66667,2.09382 -1.46667,0.78494 -2.66667,1.12716 -2.66667,0.76049 z m -23.62017,-11.02286 c 2.04225,-1.32236 4.23813,-4.20429 4.87976,-6.404294 1.11961,-3.838956 1.17141,-3.862636 1.28683,-0.588174 0.15097,4.283518 -2.24062,7.397768 -6.54642,8.524498 -3.25821,0.8526 -3.24965,0.81808 0.37983,-1.53203 z m 29.62017,-2.2979 c 1.46667,-1.20207 3.79032,-3.517764 5.1637,-5.145988 l 2.49701,-2.960406 -1.92809,3.235597 c -1.06044,1.77958 -3.38411,4.095267 -5.16368,5.145987 -3.08631,1.82223 -3.11256,1.80954 -0.56894,-0.27519 z m -69,-10.209851 C 143.25,90.926773 144,89.353329 144,88.399996 c 0,-2.758886 -3.47133,-2.01057 -5.87588,1.266667 l -2.20115,3 1.45412,-3.066071 c 1.71503,-3.616213 6.89616,-6.29269 9.92871,-5.12899 2.7532,1.056497 0.65488,5.437039 -3.66969,7.661046 -2.44959,1.259752 -2.67766,1.218416 -1.30278,-0.236109 z m 8.46274,-4.483099 c 1.54037,-2.610728 3.05681,-4.746777 3.36988,-4.746777 0.94738,0 -3.38062,7.769282 -4.82543,8.662226 -0.73981,0.457231 -0.0848,-1.304722 1.45555,-3.915449 z M 156,82.09382 c 0,-0.366666 1.2,-1.308887 2.66667,-2.093823 1.46666,-0.784936 2.66666,-1.127158 2.66666,-0.760491 0,0.366667 -1.2,1.308888 -2.66666,2.093824 C 157.2,82.118266 156,82.460487 156,82.09382 Z m 33,-7.643905 c -2.01667,-0.736344 -3.66667,-1.839734 -3.66667,-2.451979 0,-0.612244 -0.31324,-1.929462 -0.69609,-2.927147 -0.38284,-0.997687 0.25025,-2.996759 1.40689,-4.442384 2.04906,-2.561008 2.0669,-2.553726 0.6961,0.283938 -1.86696,3.864705 -1.7826,5.330025 0.1931,3.354321 2.72079,-2.720791 7.06279,-1.779155 11.06667,2.4 3.58512,3.742059 3.65123,3.999999 1.02517,3.999999 -1.54389,0 -3.60614,0.252463 -4.58278,0.56103 -0.97666,0.308566 -3.42572,-0.04144 -5.44239,-0.777778 z m 3,-3.741405 c 0,-1.804901 -0.63537,-2.381005 -2.03403,-1.844289 -1.56852,0.601896 -1.68373,1.20262 -0.50341,2.62482 C 191.51753,73.965129 192,73.816718 192,70.70851 Z m 14.69341,-2.074068 c 0.92763,-1.117721 1.96118,-1.75764 2.29678,-1.422041 0.92465,0.924663 -0.95407,3.454263 -2.56547,3.454263 -0.88413,0 -0.78297,-0.765043 0.26869,-2.032222 z m 10.7794,-10.125226 c -2.10006,-2.254157 -2.60026,-4.113834 -2.0814,-7.738238 0.37566,-2.624039 0.8508,-6.105519 1.05588,-7.73662 0.64458,-5.126566 1.9197,-4.754148 2.86423,0.836544 0.50029,2.961161 2.16077,6.974532 3.68999,8.9186 2.03582,2.58814 2.42701,4.094846 1.46084,5.626557 -2.06774,3.278037 -3.99839,3.303769 -6.98954,0.09316 z m -7.05986,-8.509218 c 0.67469,-1.466667 1.56042,-3.566667 1.96829,-4.666667 0.64059,-1.727658 0.75591,-1.716969 0.84683,0.07849 0.0579,1.143172 -0.82783,3.243172 -1.9683,4.666666 -2.04037,2.546759 -2.05392,2.545503 -0.84682,-0.07849 z m 46.36177,440.576972 c 2.33711,-1.93963 2.49076,-9.79526 0.22528,-11.51747 -2.34713,-1.78428 -13.32101,-5.72619 -15.94117,-5.72619 -2.08967,0 -3.6622,3.45184 -5.64654,12.39466 -0.45497,2.05038 -0.53004,4.20882 -0.16681,4.79652 1.08427,1.75438 19.42471,1.79909 21.52924,0.0525 z m 5.59527,-15.31926 c 1.62984,-1.14158 2.96334,-3.277 2.96334,-4.74536 0,-1.61929 0.58328,-2.30926 1.4824,-1.75357 0.81534,0.50389 2.00614,0.0893 2.64626,-0.92131 0.92326,-1.45766 1.16806,-1.36042 1.18426,0.47044 0.0229,2.60056 6.17426,4.73823 8.09822,2.81427 0.66874,-0.66875 1.79234,-4.25548 2.49689,-7.97053 1.78653,-9.4204 5.81409,-15.72358 16.6996,-26.13502 9.38449,-8.9758 9.39225,-8.98922 9.25152,-15.99999 -0.17748,-8.84154 -5.38961,-20.76354 -11.31952,-25.89179 -13.11449,-11.34159 -20.60153,-22.47704 -26.56764,-39.51403 -2.49903,-7.13628 -4.11883,-9.64147 -7.64173,-11.81875 -2.45879,-1.51962 -4.73692,-2.49652 -5.06252,-2.17092 -1.91223,1.91221 12.67288,37.0455 15.37893,37.0455 0.62471,0 2.50855,2.25 4.18631,5 1.67776,2.75 5.85386,8.63895 9.28022,13.08655 7.5068,9.74422 10.98416,16.15656 9.31951,17.18537 -0.67329,0.41612 -2.70275,-2.39984 -4.50988,-6.25767 -1.80715,-3.85784 -4.22667,-8.21425 -5.37671,-9.68092 -1.97184,-2.5147 -2.04374,-2.36448 -1.26164,2.63607 0.8848,5.65724 5.11903,13.99525 8.01223,15.77761 1.30371,0.80315 0.3788,2.4013 -3.60487,6.2288 -2.94717,2.83164 -5.3585,5.57895 -5.3585,6.10512 0,0.52616 -3.3,4.71541 -7.33334,9.30944 C 271.3,442.65105 268,446.97861 268,447.67381 c 0,0.6952 -1.65,3.09196 -3.66667,5.32612 -2.01666,2.23416 -4.87416,6.06565 -6.34998,8.51444 -1.47582,2.44877 -4.60271,5.65981 -6.94864,7.13562 -2.34592,1.47583 -4.28538,2.98332 -4.30988,3.34999 -0.0503,0.75141 9.19956,5.00781 11.31182,5.20527 0.75351,0.0704 2.70351,-0.80596 4.33334,-1.94754 z m 169.10596,-30.05044 c -1.9527,-1.53598 -4.67522,-4.98598 -6.05006,-7.66666 -3.58749,-6.99494 -7.29388,-9.94043 -20.16834,-16.02799 -6.275,-2.96708 -13.70751,-7.22122 -16.51667,-9.45366 -6.09136,-4.8408 -7.06619,-5.0739 -4.42875,-1.05898 2.6647,4.05642 10.80227,9.48091 19.68787,13.12391 8.08084,3.31305 16,8.73296 16,10.95046 0,0.7835 -1.65,-0.1144 -3.66667,-1.99533 -3.73636,-3.48488 -8.6189,-6.43269 -10.57901,-6.38704 -0.59821,0.0139 1.61235,1.72169 4.91235,3.79501 3.3,2.07332 6.81798,4.75532 7.81774,5.95999 0.99976,1.20467 2.31966,1.88011 2.9331,1.50097 0.61345,-0.37913 1.82257,0.67748 2.68693,2.34802 2.59264,5.01078 5.48793,7.70401 8.28203,7.70401 2.34106,0 2.23802,-0.31605 -0.91052,-2.79271 z m -12.37616,-22.81115 c -1.40382,-2.41787 -5.52555,-6.09551 -9.15942,-8.17252 -3.63388,-2.07702 -5.40704,-3.33658 -3.94037,-2.79902 4.24761,1.5568 22.40548,3.22742 25.33333,2.3308 L 434,412.93874 l -2.66667,-1.04233 c -2.25692,-0.88217 -2.30813,-1.05673 -0.33333,-1.13604 3.73503,-0.15001 2.65293,-1.91324 -2.70107,-4.40125 -4.88121,-2.26831 -10.9656,-10.54695 -10.9656,-14.92018 0,-5.23005 -7.38373,-17.2289 -13.87112,-22.54109 C 399.72467,365.83736 392.76667,359.41453 388,354.6249 l -8.66667,-8.70842 0.43752,9.67548 c 0.27978,6.187 -0.33926,12.34754 -1.71694,17.08661 -2.42646,8.34671 -1.60936,13.57909 3.27157,20.94981 l 2.89491,4.3716 -3.43691,-4 c -3.36823,-3.92008 -3.43703,-3.93722 -3.44352,-0.85853 -0.007,3.27788 6.32219,12.26997 11.86592,16.85853 3.52601,2.9185 31.15815,17.75985 31.95353,17.1624 0.27102,-0.20356 -0.65582,-2.34838 -2.05962,-4.76626 z m -26.12362,-16.4442 C 390.23928,404.09214 388,402.28364 388,401.933 c 0,-0.35064 2.4,0.95073 5.33333,2.89192 4.65754,3.0822 6.23171,4.5084 4.97618,4.5084 -0.19643,0 -2.59643,-1.52163 -5.33334,-3.3814 z m 31.33612,14.00898 c -2.39489,-2.1785 -5.07224,-3.96092 -5.94962,-3.96092 -0.8774,0 0.48206,1.77562 3.02102,3.94582 6.02728,5.15185 8.59015,5.16506 2.9286,0.0151 z m 2.85967,-27.69981 c 0.36447,-0.58972 -1.10012,-1.7376 -3.25464,-2.55085 -4.25796,-1.60719 -4.2982,-1.58759 -3.108,1.51402 0.84197,2.19418 5.20768,2.90559 6.36264,1.03683 z m 2.08992,-9.26111 c -0.0393,-0.55 -3.23759,-2.50161 -7.10733,-4.33693 l -7.03588,-3.33693 1.33104,4.33693 c 1.23422,4.02147 1.7512,4.33693 7.10733,4.33693 3.17696,0 5.74415,-0.45 5.70484,-1 z m -53.58301,-12.66666 c 3.79378,-10.57938 3.92514,-29.2274 0.18962,-26.91872 -0.63892,0.39487 -0.78452,-1.26188 -0.32356,-3.68167 0.46096,-2.41978 0.3995,-3.99718 -0.13658,-3.50533 -0.53607,0.49185 -1.21247,3.36301 -1.50311,6.38036 -0.29063,3.01733 -1.06299,6.5149 -1.71636,7.77238 -2.96745,5.71114 -3.28119,28.28631 -0.39309,28.28631 0.49209,0 2.23948,-3.75 3.88308,-8.33333 z M 403.94059,357.4064 C 401.77327,352.31326 400,347.03327 400,345.67307 c 0,-1.36019 -0.52459,-3.04308 -1.16575,-3.73975 -0.64116,-0.69667 -2.47962,-5.46667 -4.08546,-10.6 -3.52758,-11.27641 -8.18766,-22 -9.5604,-22 -0.5516,0 -1.26294,1.35 -1.58075,3 -0.36408,1.89028 -0.64499,1.17956 -0.7594,-1.92131 -0.31337,-8.4936 -2.18039,-6.57054 -2.20545,2.27164 -0.0133,4.6335 0.40656,8.15852 0.93264,7.83339 0.52608,-0.32513 1.33221,1.67552 1.7914,4.44589 1.35641,8.18335 3.44552,12.39735 11.40149,22.99822 4.14379,5.52135 8.53151,11.98883 9.75049,14.37217 3.84996,7.52737 3.51804,4.69917 -0.57822,-4.92692 z m -1.27392,5.3864 c 0,-1.29667 -5.96351,-8.70616 -13.02284,-16.18053 -2.3959,-2.53675 -5.3959,-6.8468 -6.66667,-9.57788 -1.27077,-2.73108 -2.76049,-4.98108 -3.31049,-5 -1.98268,-0.0683 -0.93646,5.51292 2.18888,11.67658 3.01858,5.95316 14.20728,17.62235 16.89673,17.62235 0.68624,0 1.24772,0.6 1.24772,1.33333 0,0.73333 0.6,1.33333 1.33333,1.33333 0.73334,0 1.33334,-0.54322 1.33334,-1.20718 z M 115.39685,338.99999 c 1.6295,-9.99071 -0.1767,-20.43754 -4.41426,-25.53159 -2.15958,-2.59608 -2.67597,-2.66061 -7.64926,-0.9558 -4.949869,1.69677 -5.550657,2.46632 -8.355983,10.70313 -3.587898,10.53454 -2.730184,13.34027 4.711994,15.41378 2.737529,0.7627 6.477329,2.56974 8.310659,4.01564 4.99294,3.93774 6.26209,3.3123 7.39685,-3.64516 z m 149.39356,1.43381 c -1.52657,-4.72455 -15.45708,-11.95271 -15.45708,-8.02025 0,2.39188 2.78339,4.76488 9.85691,8.40357 6.12051,3.14847 6.72792,3.10689 5.60017,-0.38332 z m 115.23634,-41.06825 c -0.92763,-1.11774 -2.30612,-2.03223 -3.06332,-2.03223 -0.7572,0 -0.28742,1.20368 1.04397,2.67484 2.75741,3.04692 4.59584,2.46188 2.01935,-0.64261 z M 50.124888,252.99999 c 7.740384,-8.96665 12.567483,-18.19037 12.803369,-24.46497 0.193064,-5.13552 -1.654774,-7.14766 -6.594924,-7.18128 -1.65,-0.0107 -3.024022,-0.77042 -3.053384,-1.68708 -0.02936,-0.91667 -0.91215,-0.0861 -1.961754,1.84573 -1.049604,1.93183 -3.981418,4.73553 -6.515142,6.23047 -10.194761,6.01505 -12.217062,15.94114 -4.805672,23.58776 5.308064,5.47653 6.65005,5.69774 10.127507,1.66937 z M 272.48012,198.00076 c -0.10689,-6.49379 0.36092,-11.3341 1.09541,-11.3341 0.7051,0 1.17263,1.35 1.03896,3 -0.13365,1.65 -0.12253,4.8 0.0248,7 l 0.26784,4 1.32786,-4.62916 c 1.12154,-3.90992 1.52748,-4.27245 2.61266,-2.33334 2.23586,3.99524 3.23235,2.55144 4.88311,-7.07506 1.6618,-9.69088 0.75065,-14.2716 -3.99841,-20.10175 -2.24906,-2.76102 -7.27083,-4.35288 -8.32927,-2.64029 -1.08008,1.74763 2.25185,9.61649 5.05701,11.94285 1.21359,1.00647 2.20654,2.73898 2.20654,3.85002 0,3.30154 -7.73528,-7.42248 -8.7151,-12.0824 -0.49313,-2.34531 -2.20145,-5.4642 -3.79629,-6.93087 -1.59483,-1.46667 -3.567,-4.16667 -4.38261,-6 l -1.48292,-3.33333 -1.57523,4 c -4.01576,10.19734 -1.5346,17.56214 7.13729,21.18549 2.53012,1.05715 5.24851,3.13344 6.04087,4.61397 2.23504,4.17622 1.73136,4.37003 -1.90544,0.73323 -1.84036,-1.84035 -5.39932,-4.20399 -7.90883,-5.25252 -2.5095,-1.04855 -4.94521,-2.52532 -5.4127,-3.28172 -0.46748,-0.75641 -1.43292,-1.015 -2.14542,-0.57465 -2.19964,1.35945 0.22518,6.29254 6.3175,12.85241 8.12946,8.75336 7.32234,10.37353 -0.97542,1.95799 -3.78862,-3.8424 -6.42106,-5.74866 -5.93961,-4.30111 1.46131,4.39356 11.99507,20.62142 13.42317,20.67916 0.74027,0.0299 2.09536,1.25441 3.01131,2.72108 0.91595,1.46666 1.81027,2.66701 1.98739,2.66744 0.17712,4.1e-4 0.23809,-5.09959 0.13549,-11.33334 z M 285.395,160.50447 c 1.50523,-3.95905 -0.57652,-7.77053 -3.60861,-6.607 -1.22199,0.46892 -1.78899,-0.45974 -1.7946,-2.93932 -0.0172,-7.56702 -5.42331,-14.03336 -14.32512,-17.13437 -5.11735,-1.78267 -5.35868,-1.17213 -1.35331,3.42361 1.63901,1.8806 2.11901,2.66927 1.06667,1.7526 -3.31907,-2.89113 -3.87046,-1.87442 -3.2335,5.96238 0.84356,10.37877 4.01134,15.57821 9.83375,16.14065 3.84301,0.37124 4.27489,0.14435 2.89349,-1.52013 -2.48629,-2.99582 -8.35589,-18.69958 -6.3748,-17.0554 0.95055,0.78888 2.47444,3.69292 3.38643,6.45342 0.91199,2.7605 2.49211,6.15811 3.51137,7.55026 1.58047,2.15866 2.17114,2.26733 4.01342,0.73837 1.82413,-1.51389 2.10905,-1.49281 1.83138,0.13549 -0.3351,1.96511 1.25668,6.59496 2.26742,6.59496 0.30636,0 1.15506,-1.57298 1.88601,-3.49552 z m 1.75699,-9.39712 c -1.73359,-3.42428 -3.17906,-7.77428 -3.21212,-9.66666 -0.0331,-1.89239 -0.93884,-5.2407 -2.01282,-7.4407 l -1.95265,-4 0.65939,4.39962 c 0.40494,2.70193 0.15264,4.08642 -0.65387,3.58797 -0.72229,-0.4464 -1.31325,-1.66081 -1.31325,-2.69871 0,-1.03788 -1.95,-2.8914 -4.33334,-4.11892 -2.38333,-1.22752 -6.28333,-3.71414 -8.66666,-5.52582 -3.59316,-2.73134 -4.33334,-2.91719 -4.33334,-1.08808 0,2.51016 3.85926,6.34833 10.66667,10.60836 2.56667,1.60621 6.16667,5.62544 8,8.93162 6.84679,12.34734 12.81596,18.19911 7.15199,7.01132 z m -15.18728,-27.17329 c -0.80435,-1.50294 -1.21535,-4.35294 -0.91335,-6.33334 0.49877,-3.27077 0.5674,-3.20364 0.74887,0.73261 0.10986,2.38333 0.4507,4.33333 0.75738,4.33333 0.3067,0 1.58774,0.39529 2.84676,0.87843 2.06375,0.79193 2.19839,0.10272 1.36742,-7 -1.60538,-13.72178 -2.78202,-15.93432 -10.16248,-19.109308 -3.63512,-1.563786 -6.60012,-3.576569 -6.5889,-4.47285 0.014,-1.120335 0.32655,-1.177004 1,-0.181337 1.24727,1.844013 9.64626,4.765814 9.64626,3.355692 0,-2.161356 -4.81843,-5.27314 -9.51398,-6.144215 -9.58129,-1.777433 -7.25737,5.488625 2.71062,8.475108 2.83453,0.849245 5.85389,2.38778 6.7097,3.41898 2.25056,2.71174 3.47259,11.44617 1.60144,11.44617 -0.82928,0 -1.50778,-1.85383 -1.50778,-4.11961 0,-4.93441 -4.36507,-9.10485 -9.59731,-9.16937 -3.32193,-0.041 -3.50843,0.23634 -2.43619,3.62231 0.63862,2.01667 1.55848,6.04399 2.04414,8.94961 0.60066,3.59365 2.3693,6.68469 5.53112,9.66666 5.29826,4.99691 7.95468,5.75887 5.75628,1.65113 z m 2.80722,-4.71184 c 0.064,-1.55326 0.37992,-1.8692 0.80555,-0.80556 0.38516,0.9625 0.3378,2.1125 -0.1052,2.55556 -0.44307,0.44305 -0.75819,-0.34445 -0.70029,-1.75 z M 148.8228,107.17134 c 3.28039,-1.92243 5.75557,-3.70408 5.50043,-3.95922 -0.77539,-0.7754 -12.9899,5.22056 -12.9899,6.37659 0,1.68375 1.09391,1.33067 7.48947,-2.41737 z M 261.97075,85.285992 c -1.41655,-2.292008 -10.14675,-5.64711 -11.38979,-4.377201 -1.92795,1.969635 2.13404,5.540643 6.82328,5.99854 5.46524,0.533673 5.82043,0.407561 4.56651,-1.621339 z m -4.65783,-9.221031 c -0.0432,-1.545322 -2.09619,-3.727129 -4.89193,-5.198692 -3.58163,-1.885223 -11.08766,-2.020351 -11.08766,-0.199605 0,0.733333 1,1.333333 2.22223,1.333333 1.22221,0 1.82743,0.394795 1.34489,0.877321 -1.82129,1.821292 1.75402,3.791732 6.99354,3.854309 2.99164,0.03573 5.43016,-0.264269 5.41893,-0.666666 z M 239.44293,65.485329 c 3.07916,-2.422068 3.09832,-2.540444 0.52019,-3.214641 -2.88628,-0.754779 -7.13909,2.493216 -5.89668,4.503469 1.06677,1.726079 1.75269,1.561652 5.37649,-1.288828 z m -1.77626,-10.368373 c -0.91667,-0.369882 -2.41667,-0.369882 -3.33334,0 -0.91666,0.369884 -0.16666,0.672515 1.66667,0.672515 1.83333,0 2.58333,-0.302631 1.66667,-0.672515 z M 225.77884,40.999998 c -0.45164,-2.383333 -1.66779,-5.833333 -2.70255,-7.666666 l -1.88138,-3.333333 0.87444,4 c 1.59512,7.296686 1.72588,7.987941 1.82864,9.666666 0.0561,0.916666 0.68701,1.666666 1.40201,1.666666 0.74623,0 0.9502,-1.845928 0.47884,-4.333333 z M 200,41.491382 c 0,-0.646405 -2.7,-2.064157 -6,-3.15056 -6.08823,-2.004322 -8.20755,-0.949424 -3.33333,1.659176 1.46666,0.784936 2.66666,0.986047 2.66666,0.446912 0,-0.539134 0.72,-0.260245 1.6,0.619755 C 196.79759,42.930923 200,43.199367 200,41.491382 Z m 5.33333,-2.618066 c 0,-1.786356 -4.7881,-5.640768 -5.77777,-4.651095 -0.49209,0.492088 0.0996,1.993397 1.31485,3.336241 2.33187,2.576688 4.46292,3.204532 4.46292,1.314854 z m 3.57748,-5.789984 c -0.42562,-1.063644 -0.74157,-0.747701 -0.80554,0.805556 -0.0579,1.405554 0.25722,2.193054 0.70029,1.75 0.44305,-0.443056 0.49041,-1.593056 0.1052,-2.555556 z"
         id="path3933" />
    </g>
    <g
       id="layer1-3"
       inkscape:label="02"
       transform="rotate(-88.275252,137.40613,175.69939)">
      <path
         style="fill:#000000;stroke-width:0.251468"
         d="m 321.82983,128.09731 c 1.16518,-0.92023 18.73184,-14.25454 28.82555,-21.88055 15.39741,-11.633087 35.10163,-26.212988 47.73105,-35.318063 21.59798,-15.570864 37.04485,-25.614639 38.50002,-25.033294 0.38076,0.152112 1.33182,1.630627 1.22553,1.905212 -0.26931,0.695689 -70.37778,62.651775 -77.09454,68.129765 -0.72497,0.59126 -6.61597,5.68014 -13.0911,11.3086 -6.47514,5.62849 -12.38964,10.72876 -13.14336,11.33393 -0.75371,0.60518 -1.49099,1.28901 -1.63839,1.51961 -0.14741,0.2306 -0.95464,1.03314 -1.79386,1.7834 -1.34279,1.20046 -1.72669,1.39648 -3.1997,1.63371 -1.45866,0.23491 -1.87638,0.19254 -3.24971,-0.32964 -1.28998,-0.49049 -1.76319,-0.81068 -2.6085,-1.76511 -1.92454,-2.17294 -2.85146,-5.70975 -2.4101,-9.19606 0.28992,-2.2901 0.66552,-3.07933 1.94711,-4.09151 z"
         id="path1909"
         transform="translate(-42.578737,52.037042)" />
      <path
         style="fill:#0000ff;stroke-width:0.251468"
         d="m 414.03176,66.027897 c 0.25587,-0.106774 14.07848,-12.475365 13.98248,-12.511643 -0.10414,-0.03936 -5.35989,3.406576 -8.27322,5.424276 -1.63722,1.133903 -2.28841,1.787866 -3.69909,3.714798 -1.56249,2.134334 -2.39665,3.533839 -2.01017,3.372569 z"
         id="path1959"
         transform="translate(-42.578737,52.037042)" />
      <path
         style="fill:#0000ff;stroke-width:0.251468"
         d="m 406.00428,72.792646 c 9.5e-4,0.363101 0.39091,0.129328 1.62553,-0.974556 1.60782,-1.437528 1.6359,-1.481386 2.77045,-4.32502 l 1.14618,-2.872758 -2.00686,1.393333 -2.00685,1.393334 -0.76492,2.453963 c -0.42067,1.349687 -0.76423,2.668962 -0.76359,2.931687 z"
         id="path1957"
         transform="translate(-42.578737,52.037042)" />
      <path
         style="fill:#ffcc00;stroke-width:0.251468"
         d="m 398.57112,77.850821 c -0.0517,0.521238 -0.0367,0.969343 0.0333,0.99577 0.53016,0.200338 1.37967,-0.307555 3.15958,-1.888985 l 2.05971,-1.83009 -0.26227,-0.864954 c -0.14426,-0.475732 -0.12539,-1.628691 0.0419,-2.562136 l 0.30421,-1.697178 -2.01836,1.449194 -2.01837,1.44919 -0.60295,2.00073 c -0.33175,1.100364 -0.64522,2.427195 -0.69678,2.948459 z"
         id="path1955"
         transform="translate(-42.578737,52.037042)" />
      <path
         style="fill:#ffcc00;stroke-width:0.251468"
         d="m 391.93592,81.055533 c -0.47911,3.549486 0.54051,4.056014 3.28804,1.633451 0.9796,-0.863739 1.81395,-1.655326 1.8541,-1.759089 0.0399,-0.103831 -0.1574,-0.412771 -0.43902,-0.686692 -0.55541,-0.540202 -0.82365,-2.431524 -0.47778,-3.368556 0.48368,-1.310165 0.0639,-1.326219 -1.70718,-0.06524 -1.95854,1.394438 -2.18471,1.775831 -2.51816,4.24613 z"
         id="path1953"
         transform="translate(-42.578737,52.037042)" />
      <path
         style="fill:#ffcc00;stroke-width:0.251468"
         d="m 385.59141,86.631521 c -0.11331,1.821008 0.15278,2.608577 0.95075,2.814002 0.5706,0.146893 0.97392,-0.07944 2.59399,-1.455652 l 1.91835,-1.629588 -0.69485,-0.796102 c -0.84395,-0.966933 -1.24523,-2.413161 -1.0813,-3.897212 l 0.12223,-1.106758 -1.45065,0.985475 c -1.38229,0.939019 -1.4703,1.054033 -1.86751,2.440206 -0.2299,0.79992 -0.45024,1.990634 -0.49101,2.645629 z"
         id="path1951"
         transform="translate(-42.578737,52.037042)" />
      <path
         style="fill:#ffcc00;stroke-width:0.251468"
         d="m 378.71086,91.560416 c -0.39992,2.651587 0.0187,4.149648 1.16324,4.163658 0.39714,0.005 5.125,-3.877154 4.99588,-4.102077 -0.0284,-0.04925 -0.33375,-0.388076 -0.67885,-0.752969 -1.0248,-1.0836 -1.42844,-3.240385 -1.05008,-5.61094 0.0165,-0.103253 -0.6915,0.33713 -1.5733,0.978589 -1.83729,1.336529 -2.41907,2.420678 -2.85689,5.323739 z"
         id="path1949"
         transform="translate(-42.578737,52.037042)" />
      <path
         style="fill:#ffcc00;stroke-width:0.251468"
         d="m 371.81438,97.617134 c -0.10108,1.84944 0.44898,3.524466 1.25766,3.830026 0.39916,0.15089 0.96972,-0.21623 2.74161,-1.763886 l 2.23757,-1.95438 -0.80323,-0.84647 c -0.96433,-1.01625 -1.32545,-2.308774 -1.1839,-4.237573 0.19135,-2.607938 0.27458,-2.540608 -1.52086,-1.230426 -1.59655,1.165053 -1.64045,1.223656 -2.13311,2.847363 -0.27636,0.911906 -0.54474,2.421716 -0.59574,3.355346 z"
         id="path1947"
         transform="translate(-42.578737,52.037042)" />
      <path
         style="fill:#ffcc00;stroke-width:0.251468"
         d="m 365.19912,101.6184 c -0.16715,1.94607 0.18816,3.97738 0.8128,4.64683 0.47498,0.50902 0.60824,0.54166 1.3486,0.33015 0.45183,-0.12905 1.56486,-0.8827 2.4734,-1.6748 l 1.65191,-1.44015 -0.7729,-0.81944 c -0.42509,-0.45069 -0.92419,-1.29224 -1.10911,-1.8701 -0.36246,-1.132736 -0.44339,-4.160906 -0.13263,-4.963756 0.25285,-0.65321 -0.13458,-0.48071 -2.03487,0.90613 -1.36847,0.99871 -1.53231,1.20619 -1.8109,2.29324 -0.1685,0.65733 -0.3603,1.823676 -0.42629,2.591846 z"
         id="path1945"
         transform="translate(-42.578737,52.037042)" />
      <path
         style="fill:#ffcc00;stroke-width:0.251468"
         d="m 358.95771,106.32769 c -0.22823,2.62531 0.41508,5.14955 1.40801,5.52476 0.63743,0.24082 2.02391,-0.41893 3.40232,-1.61906 0.79358,-0.69096 1.45882,-1.29745 1.4783,-1.34776 0.019,-0.0504 -0.26315,-0.27436 -0.62807,-0.49787 -1.35441,-0.8296 -2.28526,-4.04483 -2.01408,-6.95697 0.0547,-0.58874 0.05,-1.04778 -0.0102,-1.0201 -0.0607,0.0276 -0.74052,0.52007 -1.51069,1.09427 -1.25867,0.93833 -1.4309,1.16501 -1.70247,2.24069 -0.16615,0.65822 -0.35635,1.82015 -0.42258,2.58206 z"
         id="path1943"
         transform="translate(-42.578737,52.037042)" />
      <path
         style="fill:#ffcc00;stroke-width:0.251468"
         d="m 352.11675,112.0024 c -0.02,2.01757 0.58791,4.4409 1.3493,5.37875 0.3312,0.40796 0.68252,0.77254 0.78072,0.81018 0.098,0.0382 1.2289,-0.84918 2.51267,-1.97074 2.31896,-2.02596 2.52983,-2.39685 1.57587,-2.77172 -0.14644,-0.0574 -0.59478,-0.69323 -0.99636,-1.41267 -0.76312,-1.36707 -1.18599,-3.87754 -0.99024,-5.87884 l 0.1096,-1.12063 -1.16364,0.85342 c -0.64001,0.46938 -1.3968,1.00128 -1.68179,1.18199 -0.71777,0.45515 -1.47654,2.95562 -1.49608,4.93027 z"
         id="path1940"
         transform="translate(-42.578737,52.037042)" />
      <path
         style="fill:#ffcc00;stroke-width:0.251468"
         d="m 345.86783,117.73861 c 0.19549,2.41503 1.669,5.28149 2.72159,5.29437 0.3051,0.003 3.64352,-2.66837 3.78256,-3.02762 0.02,-0.054 -0.34544,-0.55361 -0.81389,-1.11082 -0.79219,-0.94232 -1.6767,-3.18272 -1.89221,-4.7929 -0.0508,-0.3797 -0.0812,-1.42525 -0.0675,-2.32345 l 0.0249,-1.63308 -1.54573,1.16072 -1.54571,1.16069 -0.39108,1.90659 c -0.21513,1.04862 -0.33792,2.5631 -0.273,3.3655 z"
         id="path1938"
         transform="translate(-42.578737,52.037042)" />
      <path
         style="fill:#ffcc00;stroke-width:0.251468"
         d="m 339.67244,121.49215 c -0.0367,1.94106 0.53423,3.98302 1.50913,5.39714 1.11377,1.61557 1.37439,1.60776 3.37654,-0.10096 0.96618,-0.82457 1.8319,-1.5982 1.92382,-1.71918 0.0918,-0.121 -0.19861,-0.573 -0.64561,-1.0045 -1.57949,-1.52466 -2.70072,-5.01326 -2.51963,-7.83951 0.0384,-0.59838 0.006,-1.11149 -0.0736,-1.14028 -0.0788,-0.0284 -0.77721,0.44472 -1.55196,1.0522 -1.32586,1.03967 -1.42563,1.18282 -1.69865,2.43696 -0.15961,0.73279 -0.30355,2.046 -0.32005,2.91814 z"
         id="path1936"
         transform="translate(-42.578737,52.037042)" />
      <path
         style="fill:#ffcc00;stroke-width:0.251468"
         d="m 333.55442,122.803 c 0.0874,0.10908 -0.0296,0.87592 -0.26008,1.70426 -0.54239,1.94931 -0.51768,4.01421 0.0726,6.07558 0.47512,1.65929 1.86901,3.69182 2.46271,3.59106 0.31911,-0.0542 4.98371,-4.03312 4.87453,-4.158 -0.0327,-0.0376 -0.39966,-0.39832 -0.81523,-0.80178 -1.71627,-1.66627 -2.84217,-4.86173 -2.79221,-7.9247 l 0.0277,-1.69945 -1.78993,1.35444 c -1.92574,1.45719 -2.02169,1.55737 -1.78009,1.8586 z"
         id="path1934"
         transform="translate(-42.578737,52.037042)" />
      <path
         style="fill:#ffcc00;stroke-width:0.251468"
         d="m 325.90351,131.59184 c -0.0396,3.1123 1.80181,6.98447 3.65411,7.68441 0.22069,0.0833 1.11812,-0.51662 2.24991,-1.50424 1.03551,-0.90362 1.89969,-1.68665 1.92035,-1.74005 0.0199,-0.0537 -0.42348,-0.62809 -0.987,-1.27707 -1.66873,-1.92179 -2.51083,-4.94174 -2.32398,-8.3343 l 0.0958,-1.73916 -1.97879,1.48857 c -1.95542,1.471 -1.98254,1.50491 -2.29722,2.87367 -0.17513,0.76181 -0.32508,1.90849 -0.33319,2.54817 z"
         id="path1932"
         transform="translate(-42.578737,52.037042)" />
      <path
         style="fill:#ffcc00;stroke-width:0.251468"
         d="m 322.3688,132.82209 c -0.27627,2.87397 0.50273,5.72256 1.9487,7.12575 0.93711,0.90937 1.55503,1.19461 2.62308,1.21083 l 0.75787,0.0115 -0.98696,-0.98029 c -2.03765,-2.02391 -3.46014,-5.72953 -3.31861,-8.645 0.11668,-2.40292 -0.77751,-1.28774 -1.02408,1.27719 z"
         id="path1930"
         transform="translate(-42.578737,52.037042)" />
    </g>
    <g
       id="g2218"
       inkscape:label="04"
       transform="matrix(0.68533627,0.11492845,-0.11492845,0.68533627,55.876281,-69.881228)">
      <path
         style="fill:#0000ff;stroke-width:0.405129"
         d="m 340.18242,414.93134 c -0.27856,-0.77032 -1.51391,-2.52969 -2.74523,-3.90964 -3.16094,-3.54253 -4.91746,-6.33198 -6.06487,-9.63137 -1.54283,-4.43642 -1.63029,-7.71688 -0.41583,-15.59675 1.3437,-8.7183 1.36609,-12.35144 0.093,-15.08537 -1.24361,-2.67057 -4.28296,-5.3558 -8.23229,-7.27302 -5.35192,-2.5982 -10.17166,-6.91162 -12.64868,-11.31994 -1.37125,-2.44041 -2.94458,-7.13753 -4.08268,-12.18873 -0.45185,-2.00539 -0.9203,-4.07432 -1.04102,-4.59758 -0.2181,-0.94545 -0.20569,-0.94353 1.97449,0.30385 2.67438,1.53012 4.12779,1.57342 6.83122,0.20349 2.25943,-1.14496 7.86912,-6.54476 10.92546,-10.51669 14.67789,-19.07501 34.55927,-62.85464 44.69688,-98.42442 3.41656,-11.98763 4.69248,-18.0291 6.50269,-30.7899 4.39068,-30.95149 13.01546,-56.31006 25.62156,-75.33251 7.69829,-11.61663 18.11714,-21.754572 28.6515,-27.878992 1.55975,-0.90681 6.57324,-3.96491 11.14108,-6.79579 21.45932,-13.29923 40.28776,-23.28091 87.30558,-46.284041 35.01914,-17.132864 49.57885,-25.001754 64.61845,-34.9234578 17.42272,-11.49386 27.56006,-21.8272202 34.38554,-35.0504852 3.61153,-6.996696 6.49857,-16.006014 6.52367,-20.357797 0.008,-1.407024 0.0962,-1.519239 1.19285,-1.519239 0.93172,0 1.58231,0.466165 3.05279,2.187363 5.9304,6.941601 9.14542,16.132851 8.60469,24.599401 l -0.22302,3.491771 2.32641,2.392257 c 6.43832,6.620572 7.773,17.5775792 3.71703,30.51461 l -1.18167,3.769036 0.76108,2.478094 c 1.1452,3.72899 2.29785,9.296525 2.84802,13.756985 0.62715,5.084157 0.28744,14.519024 -0.65144,18.093053 -0.76664,2.91838 -2.55369,7.11768 -3.75344,8.82002 -0.76949,1.09184 -0.76916,1.15131 0.0249,4.75185 0.62705,2.84351 0.81112,5.2515 0.83622,10.93852 0.0347,7.86242 -0.36447,10.55561 -2.34382,15.81431 l -1.03761,2.75663 0.8546,2.46331 c 1.78647,5.1493 1.37941,12.901232 -1.06571,20.295332 -2.09458,6.33409 -7.24629,15.82344 -11.57524,21.32135 -1.13979,1.4476 -1.16236,1.57512 -1.16236,6.569 0,15.75894 -7.89698,32.5662 -21.57101,45.90983 l -4.64133,4.52918 -0.23208,5.80164 c -0.89608,22.39567 -10.95888,38.84843 -30.67908,50.16031 -1.67116,0.95861 -3.08955,1.78235 -3.15197,1.83053 -0.0624,0.0482 -0.57037,1.97446 -1.12878,4.28063 -2.94805,12.17509 -10.81549,23.94238 -20.7905,31.09623 -1.52247,1.09191 -1.91754,1.69347 -2.76506,4.21027 -2.40736,7.14887 -7.10353,14.35112 -13.28069,20.36779 l -3.74343,3.64618 -0.46111,3.685 c -0.78526,6.27552 -3.17164,12.19183 -6.95584,17.24488 -2.439,3.25682 -7.57416,8.19362 -10.80506,10.38767 -2.42527,1.64698 -2.46024,1.6983 -3.10616,4.55851 -0.3593,1.59103 -1.3658,4.74373 -2.23667,7.00594 -0.87087,2.2622 -1.87448,4.93351 -2.23026,5.93621 -1.33711,3.76844 -5.63254,7.59804 -12.36924,11.02794 -2.1162,1.07744 -4.21856,2.29921 -4.67192,2.71509 -0.45335,0.41588 -1.64467,0.88553 -2.64736,1.04369 -1.0027,0.15818 -4.1931,1.00081 -7.08979,1.87252 -15.98427,4.81027 -34.17173,8.28049 -75.15167,14.33915 -40.90764,6.04794 -55.0562,9.16687 -60.49574,13.33591 l -1.69176,1.29661 v 3.4167 3.41677 l -1.43091,0.12048 c -1.30577,0.1099 -1.47521,0 -1.93739,-1.28017 z"
         id="path2200" />
      <path
         id="path2202"
         style="display:inline;fill:#ffff00;stroke-width:0.405129"
         d="m 637.02991,-46.769464 c -0.13166,-4.56e-4 -0.47183,1.046902 -0.75586,2.328125 -3.92614,17.709937 -16.14431,34.105935 -35.85742,48.1152345 -16.79765,11.9373985 -32.32703,20.2733385 -92.38281,49.5957035 -25.35892,12.381537 -47.01325,24.16126 -65.22657,35.480468 -4.01078,2.492618 -9.0285,5.544382 -11.15039,6.78125 -5.74777,3.350417 -10.16974,6.822193 -15.5957,12.248043 -19.09558,19.09522 -31.52158,49.0448 -37.30078,89.90235 -2.11345,14.94159 -4.96532,26.54897 -10.85938,44.20312 -17.83127,53.40908 -43.64219,97.83985 -56.83984,97.83985 -1.37025,0 -1.74414,0.14675 -1.74414,0.6875 0,1.0632 2.01613,7.42531 2.92773,9.23828 2.2701,4.51471 6.74491,8.5922 12.66992,11.54883 4.56306,2.27699 7.83706,5.38506 9.02735,8.5664 1.60055,4.27787 1.55084,6.22367 -0.51953,19.76172 -0.51713,3.38149 -0.56048,4.79881 -0.21094,7.08984 0.54164,3.55012 2.50723,7.77652 5.07031,10.90821 l 1.94141,2.375 0.50586,-1.20313 c 0.27825,-0.66175 1.02745,-1.69865 1.66406,-2.30273 1.46447,-1.3897 5.64252,-3.51218 9.05664,-4.60156 9.8694,-3.14926 21.16841,-5.24846 57.125,-10.61329 33.39395,-4.98245 47.14157,-7.44592 61.17383,-10.96484 14.42969,-3.61859 24.64066,-7.63015 30.25195,-11.88086 2.5519,-1.93314 4.85712,-4.89104 5.23828,-6.72461 0.11673,-0.5616 0.85044,-2.54315 1.63086,-4.40234 1.38047,-3.28872 2.98633,-8.78667 2.98633,-10.22266 0,-0.43168 1.30584,-1.62495 3.31836,-3.03515 6.23854,-4.37146 11.38189,-10.2349 14.12891,-16.10547 1.60538,-3.43084 2.81054,-8.3833 2.81054,-11.55274 v -2.64258 l 4.35352,-4.12304 c 2.39533,-2.26807 5.44795,-5.64372 6.7832,-7.50196 2.90996,-4.04967 5.9096,-9.8918 6.88672,-13.41406 0.67746,-2.44206 0.84501,-2.66267 3.51367,-4.59179 5.91476,-4.27565 12.08278,-11.58517 15.49805,-18.36719 1.84186,-3.65754 4.24523,-10.73348 4.56641,-13.44531 0.13121,-1.10791 0.44194,-2.27301 0.68945,-2.58985 0.24751,-0.31685 2.27179,-1.61557 4.5,-2.88476 6.07948,-3.46289 9.93741,-6.38806 14.09766,-10.68946 8.75576,-9.05282 13.41761,-19.60897 14.9121,-33.76562 0.24061,-2.27928 0.33953,-5.51244 0.21875,-7.1836 l -0.21875,-3.03711 2.4668,-2.02734 c 3.45077,-2.83164 8.78921,-8.6634 11.87305,-12.9707 5.16863,-7.21918 8.70899,-14.56275 10.83398,-22.47656 1.12485,-4.18914 1.25891,-5.32089 1.33399,-11.20704 l 0.084,-6.54492 1.82031,-2.36719 c 6.80336,-8.8494 11.87643,-20.10508 12.85938,-28.52929 0.53228,-4.56214 0.0809,-8.351731 -1.37305,-11.541018 l -0.93554,-2.052734 0.94335,-1.857422 c 2.2101,-4.348736 3.68639,-13.183326 3.20118,-19.15625 -0.31682,-3.900226 -1.29886,-9.953745 -1.84961,-11.402344 -0.33834,-0.889879 -0.18085,-1.375968 1.04101,-3.216796 3.34995,-5.046895 4.88248,-11.920769 4.51953,-20.273438 -0.24353,-5.604787 -1.56192,-13.155126 -3.21875,-18.421875 l -0.94336,-2.998047 1.09961,-3.443359 c 3.16093,-9.8886662 3.27621,-18.9461198 0.31446,-24.826172 -1.26221,-2.505903 -3.30268,-4.867741 -4.99219,-5.775391 l -1.48438,-0.796875 0.32422,-2.632812 c 0.77818,-6.316211 -0.21034,-12.821608 -2.71875,-17.882813 -1.37531,-2.77488 -3.69481,-6.422555 -4.08398,-6.423828 z m 3.85156,25.501953 c 0.26566,0.02491 0.55617,0.184989 0.88867,0.460938 1.85973,1.543432 -3.03108,13.3113002 -8.68164,20.88867162 C 624.79064,11.209489 610.98452,21.95573 589.05921,34.355536 c -14.13927,7.996432 -24.02825,12.971938 -60.36329,30.371094 -15.74815,7.541062 -32.12311,15.547361 -32.51953,15.900391 -0.0594,0.0529 -0.57744,1.719946 -1.15234,3.703125 -1.28318,4.426475 -3.28377,9.572296 -5.85156,15.050781 -1.0705,2.283923 -1.82007,4.152343 -1.66602,4.152343 0.55904,0 17.10229,-6.06594 25.99024,-9.529296 25.89836,-10.09177 52.85279,-22.188638 72.11914,-32.367188 33.02823,-17.449075 52.12422,-32.019971 57.94336,-44.21289 1.34512,-2.818444 2.05029,-3.425149 3.0332,-2.609375 0.9522,0.790234 0.71179,2.003736 -1.0332,5.205078 -2.22572,4.083193 -4.53105,6.980613 -9.18946,11.548828 -15.84318,15.536405 -49.40112,34.647872 -95.92578,54.632812 -15.50524,6.660364 -42.14503,16.997461 -52.91211,20.531251 -3.42281,1.12338 -3.70309,1.67801 -3.35937,6.65625 0.22691,3.28665 -0.27895,11.99691 -0.90235,15.52148 l -0.22656,1.27344 4.5957,-0.97656 c 53.68136,-11.4186 111.62486,-35.190583 142.94532,-58.642579 2.11681,-1.585009 5.98213,-4.947962 8.58789,-7.47461 4.94742,-4.797215 6.07866,-5.372188 6.32812,-3.21289 0.29209,2.528217 -12.82769,13.625609 -25.36133,21.451171 -33.62075,20.991618 -81.30607,39.514008 -129.03125,50.119138 l -8.55664,1.90039 -0.33789,1.39844 c -1.08305,4.46738 -2.59711,9.24423 -4.20703,13.27734 -1.82791,4.5792 -1.82809,4.58739 -1.39648,7.36915 0.23767,1.53182 0.43164,3.70685 0.43164,4.83398 0,1.12713 0.12505,2.05078 0.27734,2.05078 0.92204,0 17.29517,-3.23507 25.85352,-5.10742 29.62383,-6.48093 54.90019,-14.23073 77.80468,-23.85742 27.83938,-11.70081 51.15839,-26.90777 58.73243,-38.300784 1.42267,-2.140008 2.10275,-2.822265 2.81445,-2.822265 1.32256,0 1.5542,1.008079 0.64062,2.798828 -3.51906,6.897931 -13.99514,15.902351 -29.14062,25.050781 -6.73134,4.06597 -19.98991,10.87688 -27.80078,14.28125 -28.11902,12.25563 -62.57076,22.33272 -100.96094,29.53125 l -8.01953,1.50391 -0.29297,3.01953 c -1.03577,10.61588 -5.234,20.64652 -12.4082,29.65429 l -2.5,3.14063 3.34765,-0.002 c 17.85427,-0.009 46.47114,-5.14595 75.79883,-13.60743 18.90581,-5.4546 30.36325,-9.74435 43.41602,-16.2539 17.25468,-8.60509 29.60016,-17.74693 41.35547,-30.6211 3.32962,-3.64652 4.26706,-4.08289 4.8457,-2.25976 0.5108,1.60944 -8.83376,11.38991 -17.64063,18.46484 -11.08823,8.90764 -25.8152,17.23999 -41.99804,23.76172 -19.67056,7.92729 -52.73458,16.86379 -76.50196,20.67578 -10.97893,1.76089 -16.65156,2.31142 -26.32812,2.5586 l -9.31445,0.23828 -3.04297,2.75976 c -8.09072,7.33944 -22.0836,17.09809 -35.41797,24.69727 -2.80459,1.59828 -5.09961,2.99823 -5.09961,3.11133 0,0.11309 0.52377,1.13806 1.16406,2.27929 0.64029,1.14123 1.76929,3.57969 2.50977,5.41797 1.27492,3.16508 1.4126,3.34155 2.58398,3.33789 2.83221,-0.009 17.6049,-0.84556 25.13867,-1.42383 60.83847,-4.6698 117.89744,-22.94863 151.44336,-48.51562 3.87304,-2.95184 4.95445,-3.59428 5.48828,-3.25977 1.60168,1.00362 1.03234,2.00479 -2.85546,5.01563 -31.70834,24.55588 -85.1423,42.76305 -143.13672,48.77344 -7.95875,0.82482 -20.95862,1.74217 -29.60352,2.08789 l -6.91406,0.27539 0.56641,2.88086 c 0.35925,1.82645 0.49537,4.30337 0.37304,6.76758 -0.18304,3.68733 -0.5081,4.90114 -2.57031,9.58398 -0.12404,0.28167 0.0516,0.50586 0.39648,0.50586 1.75057,0 4.25468,3.40816 5.16797,7.03516 l 0.47266,1.8789 1.875,-0.004 c 6.58158,-0.009 28.79165,-1.53701 41.58008,-2.86133 39.83792,-4.12543 76.75367,-13.03094 97.55468,-23.53125 2.63826,-1.33178 3.92969,-1.25183 3.92969,0.24218 0,1.24313 -0.22723,1.39849 -5.87304,3.97266 -24.45773,11.15117 -61.23742,19.29281 -104.72657,23.18555 -9.2084,0.82425 -25.76838,1.82569 -30.22851,1.82812 l -3.69141,0.004 -0.22461,5.77344 c -0.24779,6.35837 -1.11752,10.27728 -3.08984,13.92773 l -1.12305,2.07813 1.37695,1.09765 c 0.75697,0.60399 1.67279,1.72057 2.03516,2.48047 l 0.6582,1.38086 h 3.67383 c 12.9805,-0.003 40.68977,-2.04492 58.16211,-4.28711 26.12383,-3.35238 43.80245,-7.89269 54.33984,-13.95703 3.87229,-2.22854 4.5783,-2.39035 5.2168,-1.19727 0.6239,1.16574 -0.77518,2.32989 -6.04101,5.02344 -14.66241,7.50002 -42.35723,12.94519 -80.45704,15.82031 -11.62047,0.8769 -22.71044,1.43257 -28.60742,1.4336 h -5.10742 l 0.19727,3.79492 c 0.14087,2.69312 0.003,4.67747 -0.47461,6.82812 -0.67573,3.0373 -2.75947,7.88563 -4.34571,10.11329 -0.46533,0.65352 -0.72017,1.31301 -0.5664,1.46679 0.50369,0.50369 29.72635,0.59019 37.67773,0.11133 29.7921,-1.79419 50.51972,-7.05125 64.58594,-16.38086 2.78972,-1.85034 3.5373,-2.1796 4.17578,-1.83789 2.01136,1.07644 -0.79184,3.70278 -8.38672,7.85938 -17.92113,9.80808 -51.50044,14.90444 -89.50781,13.58398 l -11.19531,-0.38867 -2.79297,2.15625 -2.79297,2.1582 1.60937,1.57227 c 1.79145,1.74931 3.34995,4.72556 4.00586,7.65234 0.58265,2.59993 0.56951,8.10624 -0.0254,10.46875 -0.26587,1.05584 -0.40155,2.00078 -0.30078,2.10156 0.10077,0.10076 2.63143,0.48845 5.62305,0.85938 6.61029,0.81966 23.45335,0.93747 30.35351,0.21289 17.53441,-1.84129 32.90203,-5.96926 45.70313,-12.27734 3.63396,-1.79072 6.87304,-3.15445 7.19922,-3.0293 0.86532,0.33208 1.14826,1.38013 0.5625,2.08594 -0.77113,0.92913 -6.62945,4.01576 -11.47266,6.04492 -12.91031,5.4089 -28.9741,9.09686 -45.23242,10.38672 -7.09952,0.56325 -22.12287,0.23011 -28.76367,-0.63868 -2.56245,-0.33522 -4.86678,-0.61128 -5.11914,-0.61328 -0.25235,0 -1.25536,1.21909 -2.22852,2.71289 -5.97705,9.17489 -16.45846,15.27183 -30.5332,17.75977 -3.96251,0.70043 -16.93126,1.12032 -20.25586,0.65625 -2.44708,-0.34159 -3.03906,-0.67598 -3.03906,-1.71875 0,-0.92215 0.85905,-1.31501 4.2539,-1.94336 4.74812,-0.87885 9.73901,-4.07678 11.77149,-7.54492 2.92685,-4.99432 1.55366,-12.43497 -3.31641,-17.9707 -1.75369,-1.99343 -1.86398,-2.24253 -1.35547,-3.03907 3.73942,-5.85748 4.95062,-9.2949 4.95508,-14.05078 0.004,-3.71945 -0.82112,-6.70554 -2.7207,-9.85547 -0.78893,-1.30822 -1.4336,-2.59266 -1.4336,-2.85351 0,-0.26082 0.83499,-1.28785 1.85547,-2.28125 3.52201,-3.42849 5.09571,-7.29346 5.09571,-12.51563 0,-6.77188 -3.40917,-11.9892 -10.40039,-15.91406 -2.70023,-1.51589 -3.31817,-2.75465 -1.78321,-3.57617 1.40967,-0.75442 4.45051,-3.69317 5.42969,-5.24805 2.51306,-3.99054 3.12941,-9.84518 1.44141,-13.68945 -1.19434,-2.71995 -3.77739,-5.01627 -7.03711,-6.25781 -2.04352,-0.77831 -2.5223,-1.13444 -2.61328,-1.94727 -0.0929,-0.8298 0.44501,-1.39933 3.23242,-3.42578 4.11946,-2.99485 12.02766,-10.77323 14.82812,-14.58399 10.24367,-13.93928 16.5646,-32.22534 22.75781,-65.83593 3.85222,-20.906 6.67153,-30.38551 12.47071,-41.92969 6.46926,-12.87811 14.56741,-22.0652 28.45703,-32.2832 3.3902,-2.49403 17.02851,-11.628183 22.16992,-14.84766 10.33668,-6.472664 29.52456,-16.321687 62.50195,-32.082031 39.85356,-19.046563 59.47154,-29.481683 74.05469,-39.392578 18.20152,-12.3700269 28.71418,-24.5599005 32.47656,-37.658204 0.83712,-2.914317 1.41396,-4.061066 2.21094,-3.986328 z" />
      <path
         style="fill:#ffff00;stroke-width:0.405129"
         d="m 424.11024,155.92428 c 8.79483,-3.70352 18.70372,-9.15861 26.55433,-14.6188 16.5366,-11.50141 30.55969,-29.46168 38.53335,-49.352162 1.23905,-3.09083 3.28801,-9.1793 3.13136,-9.30482 -0.1908,-0.15289 -13.59801,7.23962 -18.9343,10.44003 -7.6382,4.58099 -22.3719,14.549462 -28.09588,19.008982 -14.22119,11.07969 -23.05753,23.58938 -29.02137,41.08584 -1.11748,3.2784 -2.03177,6.11711 -2.03177,6.30826 0,0.39331 3.24957,-0.78186 9.86428,-3.56733 z"
         id="path2204" />
      <path
         style="fill:#ffff00;stroke-width:0.405129"
         d="m 417.57687,197.29688 c 23.86103,-9.29061 41.48533,-22.43851 51.55906,-38.4636 7.52943,-11.97766 11.95653,-27.03537 11.95653,-40.66722 v -4.22675 l -2.09124,3.00073 c -10.77836,15.46591 -24.02244,26.7506 -42.98197,36.62301 -6.04662,3.14853 -15.17792,7.14353 -19.87478,8.69533 -2.11527,0.69887 -2.84898,1.14482 -3.13913,1.90796 -0.20826,0.54775 -1.0065,4.22077 -1.77388,8.16225 -3.93529,20.21289 -5.48017,27.93024 -5.7122,28.53488 -0.21985,0.57293 0.21971,0.52116 3.1213,-0.36762 1.85745,-0.56895 5.87879,-2.00849 8.93631,-3.19897 z"
         id="path2206" />
      <path
         style="fill:#ffff00;stroke-width:0.405129"
         d="m 399.57708,239.47652 c 28.32047,-14.26455 51.61049,-30.16366 61.57892,-42.03732 8.4902,-10.11289 12.39682,-20.021 12.91982,-32.76774 0.30934,-7.5393 0.008,-8.25349 -2.03526,-4.82348 -3.89453,6.53776 -11.42821,14.91085 -18.69952,20.78304 -11.16494,9.0166 -27.95652,17.69451 -44.0205,22.74986 l -4.72286,1.48628 -0.87886,3.31653 c -3.68554,13.90819 -8.35608,25.84945 -13.37951,34.20772 -0.70307,1.16981 -1.16442,2.12693 -1.02521,2.12693 0.1392,0 4.75755,-2.26882 10.26298,-5.04182 z"
         id="path2208" />
      <path
         style="fill:#ffff00;stroke-width:0.405129"
         d="m 387.70211,280.92158 c 12.4404,-2.57353 21.90154,-6.7237 26.82192,-11.7655 5.30376,-5.43466 6.22909,-12.46934 2.96487,-22.54005 -1.0846,-3.34616 -3.5671,-8.87056 -4.51857,-10.05535 -0.26555,-0.33065 -1.66882,0.23774 -4.91598,1.99122 -5.3207,2.87321 -21.54694,10.828 -22.08703,10.828 -0.204,0 -1.69075,1.51603 -3.30389,3.36894 -2.52822,2.90403 -4.64932,4.90222 -11.0764,10.43453 l -1.21036,1.04183 1.80272,1.05648 c 2.3558,1.3806 5.02008,4.30206 6.10697,6.6965 0.70097,1.54425 0.87255,2.71941 0.89189,6.10856 l 0.0239,4.19647 2.2204,-0.26098 c 1.22122,-0.14353 4.04701,-0.63881 6.27952,-1.10065 z"
         id="path2210" />
      <path
         style="fill:#ffff00;stroke-width:0.405129"
         d="m 390.14071,315.77956 c 11.24646,-1.37123 21.09649,-6.12651 26.89624,-12.98466 4.66904,-5.52112 5.82957,-9.18628 5.88113,-18.57378 0.0268,-4.88043 -0.12145,-6.78431 -0.6654,-8.5452 -1.59259,-5.15548 -3.39627,-5.65628 -7.9491,-2.20703 -6.9519,5.26677 -19.80369,9.79535 -32.90099,11.59331 l -3.47142,0.47652 -0.957,1.80398 c -0.52635,0.99218 -1.80179,2.70379 -2.83432,3.80356 l -1.87731,1.9996 1.9394,1.2445 c 2.75334,1.76681 6.14769,5.5876 7.60356,8.55878 1.59981,3.26493 2.211,6.62786 1.87925,10.34006 l -0.26248,2.9372 h 1.53613 c 0.84487,0 3.17691,-0.20118 5.18231,-0.44571 z"
         id="path2212" />
      <path
         style="fill:#ffff00;stroke-width:0.405129"
         d="m 392.10088,342.76255 c 6.60902,-0.86639 11.9689,-2.3702 16.87218,-4.73377 3.64051,-1.7549 4.73799,-2.53217 7.54615,-5.34459 2.62213,-2.62609 3.62706,-3.99733 4.9737,-6.78665 1.81015,-3.74945 2.86294,-7.81706 2.87428,-11.10527 0.0151,-4.39039 -2.26821,-9.90951 -4.09968,-9.90951 -0.48737,0 -1.99646,1.06855 -3.51423,2.48836 -7.51602,7.03086 -17.53073,10.94041 -29.82084,11.64144 l -4.42366,0.25232 -0.99246,1.82309 c -0.54585,1.00269 -1.69493,2.67012 -2.55351,3.70542 l -1.56105,1.88234 1.21882,2.43907 c 1.666,3.33394 2.53419,7.65842 2.27227,11.31815 l -0.21022,2.93717 h 3.39161 c 1.8654,0 5.47738,-0.2734 8.02664,-0.60757 z"
         id="path2214" />
      <path
         style="fill:#ffff00;stroke-width:0.405129"
         d="m 382.6458,381.80449 c 14.82228,-1.98057 26.02777,-8.73049 31.76351,-19.13363 3.45042,-6.25817 2.85546,-15.36725 -1.29339,-19.80209 -1.50582,-1.60963 -3.03913,-1.73229 -6.36487,-0.50915 -6.5365,2.40398 -14.84738,3.84643 -22.16166,3.84643 h -4.63707 l -1.85449,3.72785 -1.8545,3.72788 1.3628,1.66311 c 0.74953,0.9147 1.91563,2.8445 2.59133,4.28842 3.38984,7.24394 2.37778,14.21645 -2.77719,19.1335 -1.26111,1.20287 -2.88014,2.49073 -3.59783,2.86182 -0.71769,0.37115 -1.3049,0.7708 -1.3049,0.88809 0,0.26544 6.06162,-0.14889 10.12826,-0.69223 z"
         id="path2216" />
    </g>
  </g>
</svg>
